<?xml version="1.0" standalone="no"?>
<!DOCTYPE svg PUBLIC "-//W3C//DTD SVG 1.1//EN" "http://www.w3.org/Graphics/SVG/1.1/DTD/svg11.dtd" >
<svg xmlns="http://www.w3.org/2000/svg">
<metadata>
Created by FontForge 20120731 at Mon Jan 16 14:45:42 2017
 By admin
</metadata>
<defs>
<font id="iconfont" horiz-adv-x="1024" >
  <font-face 
    font-family="iconfont"
    font-weight="500"
    font-stretch="normal"
    units-per-em="1024"
    panose-1="2 0 6 3 0 0 0 0 0 0"
    ascent="896"
    descent="-128"
    x-height="792"
    bbox="0 -212 1254 896"
    underline-thickness="0"
    underline-position="0"
    unicode-range="U+0078-E995"
  />
<missing-glyph 
 />
    <glyph glyph-name=".notdef" 
 />
    <glyph glyph-name=".notdef" 
 />
    <glyph glyph-name=".null" horiz-adv-x="0" 
 />
    <glyph glyph-name="nonmarkingreturn" horiz-adv-x="341" 
 />
    <glyph glyph-name="x" unicode="x" horiz-adv-x="1001" 
d="M281 543q-27 -1 -53 -1h-83q-18 0 -36.5 -6t-32.5 -18.5t-23 -32t-9 -45.5v-76h912v41q0 16 -0.5 30t-0.5 18q0 13 -5 29t-17 29.5t-31.5 22.5t-49.5 9h-133v-97h-438v97zM955 310v-52q0 -23 0.5 -52t0.5 -58t-10.5 -47.5t-26 -30t-33 -16t-31.5 -4.5q-14 -1 -29.5 -0.5
t-29.5 0.5h-32l-45 128h-439l-44 -128h-29h-34q-20 0 -45 1q-25 0 -41 9.5t-25.5 23t-13.5 29.5t-4 30v167h911zM163 247q-12 0 -21 -8.5t-9 -21.5t9 -21.5t21 -8.5q13 0 22 8.5t9 21.5t-9 21.5t-22 8.5zM316 123q-8 -26 -14 -48q-5 -19 -10.5 -37t-7.5 -25t-3 -15t1 -14.5
t9.5 -10.5t21.5 -4h37h67h81h80h64h36q23 0 34 12t2 38q-5 13 -9.5 30.5t-9.5 34.5q-5 19 -11 39h-368zM336 498v228q0 11 2.5 23t10 21.5t20.5 15.5t34 6h188q31 0 51.5 -14.5t20.5 -52.5v-227h-327z" />
    <glyph glyph-name="set" unicode="&#x3474;" horiz-adv-x="1000" 
d="M932 324v152l-172 30l-0.5 1.5t-0.5 2.5l100 143l-108 107l-142 -100q-1 0 -2.5 0.5t-2.5 1.5l-30 171h-152l-30 -171q0 -1 -1.5 -1.5t-2.5 -0.5l-143 100l-107 -107l100 -143q0 -1 -0.5 -2.5t-1.5 -1.5l-171 -30v-152l171 -30q1 -1 1.5 -2.5t0.5 -2.5l-100 -142
l107 -108l143 100q1 0 2.5 -0.5l1.5 -0.5l30 -172h152l30 172q1 0 2.5 0.5t2.5 0.5l142 -100l108 108l-100 142q0 1 0.5 2.5t0.5 2.5zM498 248q-63 0 -107 44.5t-44 107.5t44 107t107 44t107.5 -44t44.5 -107t-44.5 -107.5t-107.5 -44.5z" />
    <glyph glyph-name="down" unicode="&#xe63a;" 
d="M521 224l320 320h-658z" />
    <glyph glyph-name="menu10" unicode="&#xe60d;" 
d="M878 720q-18 15 -41 15h-4q-7 -1 -26 -1q-66 0 -119 13q-26 6 -57 25t-59.5 42t-31.5 25q-15 10 -33 10t-33 -10l-5 -4.5t-12.5 -11.5t-18 -15.5t-23.5 -17.5t-26.5 -17.5t-29 -15.5t-29.5 -10q-53 -13 -120 -13q-19 0 -26 1h-4q-23 0 -41 -15q-19 -17 -19 -42v-144
q0 -109 21 -201t51 -151.5t72 -107.5t77.5 -73t74.5 -42.5t54.5 -22t26.5 -6.5q5 -1 10 -1t11 1q10 2 26 6.5t55 22t74.5 42.5t78 73t73 107.5t51.5 151.5t21 201v144q0 25 -19 42zM837 534q0 -325 -183 -473q-74 -60 -147 -74q-7 1 -18.5 4t-45.5 18.5t-65 38t-68.5 65.5
t-65 97.5t-46 139t-18.5 184.5v144q11 -1 30 -1q74 0 134 14q37 9 77.5 34t63.5 46l22 20q10 -9 26 -23t60 -41t81 -36q60 -14 133 -14l30 1v-144zM465 387l-115 124l-45 -41l156 -169h1v0l292 270l-41 45z" />
    <glyph glyph-name="close" unicode="&#xe610;" 
d="M512 -66q-107 0 -197.5 52.5t-143.5 143.5t-53 198q0 115 62 210t163 143v-129q-52 -40 -82 -98.5t-30 -125.5q0 -117 82.5 -199.5t198.5 -82.5t198.5 82.5t82.5 199.5q0 67 -30 125.5t-82 98.5v129q101 -48 163 -143t62 -210q0 -107 -53 -198t-143.5 -143.5
t-197.5 -52.5zM568 440q0 -23 -16.5 -39.5t-39.5 -16.5t-39.5 16.5t-16.5 39.5v338q0 23 16.5 39.5t39.5 16.5t39.5 -16.5t16.5 -39.5v-338z" />
    <glyph glyph-name="asuccess" unicode="&#xe69e;" 
d="M512 -96q-198 0 -339 141t-141 339t141 339t339 141t339 -141t141 -339t-141 -339t-339 -141zM512 818q-88 0 -168.5 -34.5t-138.5 -92.5t-92.5 -138.5t-34.5 -168.5t34.5 -168.5t92.5 -138.5t138.5 -92.5t168.5 -34.5t168.5 34.5t138.5 92.5t92.5 138.5t34.5 168.5
t-34.5 168.5t-92.5 138.5t-138.5 92.5t-168.5 34.5zM444 212l-168 167l33 32l135 -134l273 273l33 -32z" />
    <glyph glyph-name="pwd" unicode="&#xe736;" 
d="M760 455v103q0 5 -0.5 14t-5 34t-13 48t-26.5 50.5t-42.5 47.5t-64.5 34t-89.5 14t-89.5 -13.5t-64.5 -34.5t-42.5 -47t-26 -51.5t-13 -47t-6 -34.5v-14v-103h-104v-484h691v484h-104zM553 188v-113h-69v113q-34 20 -34 59q0 29 20 49.5t48.5 20.5t49 -20.5t20.5 -49.5
q0 -39 -35 -59zM691 455h-345v103q0 14 2 29.5t12.5 43t27.5 48t51 36.5t79.5 16t80 -16t51.5 -36.5t27 -48t12 -43t2 -29.5v-103z" />
    <glyph glyph-name="power-delete" unicode="&#xe613;" 
d="M768 378l-90 92v0l-329 336l-93 -95l328 -337l-312 -320l90 -92l313 320v0l93 95v0v1z" />
    <glyph glyph-name="menu11" unicode="&#xe7c7;" 
d="M716 610q-18 17 -43.5 17t-43.5 -17l-22 -22l-13 -13v-1l-282 -281l3 -2l-66 -167l172 63l2 -2l317 318q17 17 17 42q0 26 -19 44zM617 531l30 -29l13 -13l-30 -29l-42 41zM554 468l43 -42l-175 -174l-43 42zM332 205l19 50l32 -31zM651 565l11 11q4 4 10.5 4t10.5 -4
l23 -21q4 -5 4 -10t-3 -9l-13 -13zM769 806h-514q-68 0 -116.5 -45.5t-48.5 -109.5v-534q0 -64 48.5 -109.5t116.5 -45.5h514q68 0 116.5 45.5t48.5 109.5v534q0 64 -48.5 109.5t-116.5 45.5zM875 117q0 -40 -31 -68t-75 -28h-514q-44 0 -75 28t-31 68v534q0 40 31 68t75 28
h514q44 0 75 -28t31 -68v-534z" />
    <glyph glyph-name="btn36" unicode="&#xe649;" 
d="M880 -8h-752v341h752v-341zM812 333h-616v-273h616v273zM469 606h68v-409h-68v409zM128 606v0v0v0v0v0zM542 606h132l-176 205l-165 -205h43h166z" />
    <glyph glyph-name="btn37" unicode="&#xe64b;" 
d="M921 10q0 -14 -10.5 -24.5t-24.5 -10.5h-748q-15 0 -25.5 10.5t-10.5 24.5v0q0 15 10.5 25.5t25.5 10.5h748q14 0 24.5 -10.5t10.5 -25.5v0zM512 111q-15 0 -25.5 10.5t-10.5 25.5v610q0 15 10.5 25.5t25.5 10.5v0q15 0 25 -10.5t10 -25.5v-610q0 -15 -10 -25.5
t-25 -10.5v0zM537 122q-10 -10 -25 -10t-26 10l-268 269q-11 10 -11 25t11 25v0q10 11 25 11t25 -11l269 -268q10 -11 10 -26t-10 -25v0zM486 122q-10 10 -10 25t10 26l269 268q10 11 25 11t26 -11v0q10 -10 10 -25t-10 -25l-269 -269q-10 -10 -25 -10t-26 10v0z" />
    <glyph glyph-name="dclose" unicode="&#xe611;" 
d="M822 74q-10 -10 -24 -10t-24 10l-572 573q-10 10 -10 23.5t10 23.5v0q10 10 24 10t23 -10l573 -572q10 -10 10 -24t-10 -24v0zM202 74q-10 10 -10 24t10 24l572 572q10 10 24 10t24 -10v0q10 -10 10 -23.5t-10 -23.5l-573 -573q-9 -10 -23 -10t-24 10v0z" />
    <glyph glyph-name="sbtn09" unicode="&#xe634;" 
d="M510 730l-293 -294h169v-405h251v405h169zM607 464v-400h-189v399l-134 -1l226 227l228 -225h-131z" />
    <glyph glyph-name="power-add" unicode="&#xe7b6;" 
d="M340 296v0l334 -341l94 97l-333 341l317 324l-92 93l-317 -324v1l-94 -97v0v-1z" />
    <glyph glyph-name="btn39" unicode="&#xe64c;" 
d="M204 238q3 4 8 10.5t22.5 26.5t36.5 39t48 43.5t59 44.5t68.5 38t76.5 27.5t83 9.5t89 -12v-179l279 210q17 17 15.5 28t-20.5 28l-270 233v-187q-6 0 -15 0.5t-38 -0.5t-57.5 -5t-68.5 -14.5t-76 -26.5t-75 -44t-69.5 -64t-56.5 -89t-39 -117v0zM730 120v-36
q0 -14 -10 -24t-24 -10h-558q-14 0 -24 10t-10 24v420q0 14 10 24t24 10h120q40 43 96 70h-209q-46 0 -78.5 -32.5t-32.5 -78.5v-406q0 -46 32.5 -78.5t78.5 -32.5h544q46 0 78.5 32.5t32.5 78.5v199l-70 -70v-100z" />
    <glyph glyph-name="menu14" unicode="&#xe638;" 
d="M877 714zM877 683h-572q-13 0 -22 9t-9 22t9 22t22 9h572q13 0 22 -9t9 -22t-9 -22t-22 -9zM877 387zM877 356h-572q-13 0 -22 9t-9 22t9 22t22 9h572q13 0 22 -9t9 -22t-9 -22t-22 -9zM877 60zM877 29h-572q-13 0 -22 9t-9 21.5t9 21.5t22 9h572q13 0 22 -9t9 -21.5
t-9 -21.5t-22 -9zM114 59.5q0 -21.5 15 -36.5t36.5 -15t36.5 15t15 37v0q0 21 -15 36t-36.5 15t-36.5 -15t-15 -36.5zM114 384.5q0 -21.5 15 -36.5t36.5 -15t36.5 15t15 36v0q0 22 -15 37t-36.5 15t-36.5 -15t-15 -36.5zM114 714q0 -21 15 -36t36.5 -15t36.5 15t15 36v0
q0 21 -15 36t-36.5 15t-36.5 -15t-15 -36z" />
    <glyph glyph-name="skin" unicode="&#xe621;" 
d="M876 408l-94 54v-425h-550v422l-88 -51l-112 196l245 134h62q12 -46 60 -76t111.5 -30t111.5 30t59 76h71l235 -134z" />
    <glyph glyph-name="xiao47" unicode="&#xe892;" 
d="M317 -51l-159 157l-100 -267zM828 450l-164 169l-476 -469l170 -177zM963 579q10 11 10 29.5t-5 31.5l-5 12q-43 48 -93 85q-23 16 -45 16t-33 -8l-11 -8l-84 -85l171 -171q73 73 95 98z" />
    <glyph glyph-name="checkbox-a" unicode="&#xe62e;" 
d="M753 709h-483q-34 0 -58.5 -24.5t-24.5 -58.5v-482q0 -35 24.5 -59.5t58.5 -24.5h483q34 0 58.5 24.5t24.5 59.5v482q0 34 -24.5 58.5t-58.5 24.5zM737 471l-256 -257q-5 -5 -12 -5t-12 5l-5 5v0l-5 6l-25 24v0v1l-111 111q-5 5 -5 12t5 12l35 35q5 5 12 5t11 -5
l100 -101l210 210q5 5 12 5t11 -5l35 -35q12 -12 0 -23z" />
    <glyph glyph-name="sbtn02" unicode="&#xe62c;" 
d="M512 652zM494 652v-26v-68v-94v-106v-101v-83v-49v-7q0 -8 5.5 -13t12.5 -5t12.5 5t5.5 13v26v67v95v105v102v83v49v7q0 7 -5.5 12.5t-12.5 5.5t-12.5 -5.5t-5.5 -12.5v0zM779 385zM779 403h-26h-68h-94h-105h-102h-83h-49h-7q-8 0 -13 -5.5t-5 -13t5 -12.5t13 -5h26h68
h94h105h102h83h49h7q8 0 13 5t5 12.5t-5 13t-13 5.5v0z" />
    <glyph glyph-name="btn48" unicode="&#xe65d;" 
d="M512 802q-113 0 -209.5 -56t-152.5 -152.5t-56 -209.5t56 -209.5t152.5 -152.5t209.5 -56t209.5 56t152.5 152.5t56 209.5t-56 209.5t-152.5 152.5t-209.5 56zM512 16q-100 0 -184.5 49t-134 134t-49.5 185t49.5 184.5t134 134t184.5 49.5t185 -49.5t134 -134t49 -184.5
t-49 -185t-134 -134t-185 -49zM709 410h-394q-8 0 -13.5 -6t-5.5 -14v-12q0 -8 5.5 -14t13.5 -6h394q8 0 13.5 6t5.5 14v12q0 8 -5.5 14t-13.5 6z" />
    <glyph glyph-name="btn20" unicode="&#xe609;" 
d="M688 264h-366q-5 0 -8.5 -3.5t-3.5 -8.5t3.5 -8.5t8.5 -3.5h366q5 0 8.5 3.5t3.5 8.5t-3.5 8.5t-8.5 3.5zM688 363h-366q-5 0 -8.5 -3.5t-3.5 -8.5t3.5 -8.5t8.5 -3.5h366q5 0 8.5 3.5t3.5 8.5t-3.5 8.5t-8.5 3.5zM688 463h-366q-5 0 -8.5 -3.5t-3.5 -8.5t3.5 -8.5
t8.5 -3.5h366q5 0 8.5 3.5t3.5 8.5t-3.5 8.5t-8.5 3.5zM322 536h167q5 0 8.5 3.5t3.5 8.5t-3.5 8.5t-8.5 3.5h-167q-5 0 -8.5 -3.5t-3.5 -8.5t3.5 -8.5t8.5 -3.5zM854 696l-129 128q-9 8 -22 8h-513q-12 0 -21 -8.5t-9 -21.5v-731q0 -13 9 -22l91 -91q9 -8 21 -8t21 8l93 93
l96 -93q9 -9 21 -9t21 9l96 93l96 -93q9 -9 21 -9t21 9l87 84q9 9 9 22v611q0 12 -9 21zM746 -4l-96 93q-9 9 -21 9t-21 -9l-96 -93l-97 93q-8 9 -20.5 9t-20.5 -9l-93 -93l-71 69v718h475v-98q0 -7 5.5 -12.5t12.5 -5.5h113v-609l-70 -62v0z" />
    <glyph glyph-name="btn22" unicode="&#xe607;" 
d="M803 -11h-591q-40 0 -69 29t-29 70v590q0 42 29.5 73t69.5 31h396v-50h-396q-20 0 -35 -16.5t-15 -37.5v-590q0 -21 14.5 -35.5t34.5 -14.5h591q20 0 37 15t17 35v396h49v-396q0 -40 -31 -69.5t-72 -29.5v0zM509 228q-10 -10 -26 -13l-215 -106q-18 -9 -30 3.5t-5 30.5
l107 216q3 16 12 25l383 383q14 15 34.5 15t34.5 -15l87 -87q15 -14 15 -34.5t-15 -34.5zM280 173q-4 -8 2.5 -14.5t15.5 -2.5l133 80l-70 70zM404 332l53 -52h-1h1v0v0v-1h1v0v-1h1v-1h1l1 -1v-1h1l1 -1v-1l1 -1h1l1 -1v-1l1 -1l1 -1l1 -1h1l1 -1l1 -1l2 -2l278 278l-87 87
l-278 -278q4 -4 8 -8.5t9 -9.5zM839 663l-52 52q-7 7 -17.5 7t-17.5 -7l-51 -51l86 -88l52 52q7 7 7 17.5t-7 17.5z" />
    <glyph glyph-name="right" unicode="&#xe723;" 
d="M343 60l337 324l-337 324v-648v0zM343 60z" />
    <glyph glyph-name="btn12" unicode="&#xe60e;" 
d="M323 351zM826 586q0 13 9 22t21.5 9t21.5 -9t9 -22v-542q0 -43 -30 -74q-1 0 -2 -1q-30 -29 -71 -29h-543q-43 0 -73.5 30.5t-30.5 73.5v542q0 13 9 22t22 9t22 -9t9 -22v-542q0 -18 12.5 -30.5t29.5 -12.5h543q16 0 28 12q1 0 1 1q13 12 13 30v542v0zM482 564v-457
q0 -13 9 -22t21.5 -9t21.5 9t9 22v457q0 13 -9 22t-21.5 9t-21.5 -9t-9 -22v0zM318 564v-457q0 -13 9 -22t21.5 -9t21.5 9t9 22v457q0 13 -9 22t-21.5 9t-21.5 -9t-9 -22v0zM645 564v-457q0 -13 9 -22t22 -9t22 9t9 22v457q0 13 -9 22t-22 9t-22 -9t-9 -22v0zM93 687
q-12 0 -21 9t-9 22t9 22t21 9h246l68 69q9 9 21 9v0h168q14 0 23 -11l68 -67h244q13 0 22 -9t9 -22t-9 -22t-22 -9h-257q-13 0 -22 9l-69 69h-142l-66 -67q-9 -11 -24 -11h-258v0z" />
    <glyph glyph-name="tianjiazhuizongutrack" unicode="&#xe68e;" 
d="M422 153l7 64l13 -32q47 58 96 83l76 179l64 -96q16 -32 64 -32l103 13q1 0 4 1t9.5 4.5t11.5 8.5t9 15t4 22q0 23 -9.5 34t-19.5 11h-9l-96 -13l-77 109q-18 46 -64 64q-34 26 -90 26h-204q-20 0 -58 -13q-26 -26 -38 -51l-71 -141q-8 -16 0 -32q0 -10 19 -19
q5 -5 13 -5t13 5q13 6 26 19l76 134h116l-71 -160q-20 -34 -32 -115l-13 -179h-192q-12 0 -51 -13q-9 -5 -17 -13t-8 -13l-26 -64h339q26 0 45 20v32q0 80 38 147zM602 620q47 0 64 26q25 25 25 70q0 47 -25 64q-10 18 -24.5 25t-39.5 7q-39 0 -64.5 -25.5t-25.5 -70.5
t26 -70q38 -26 64 -26zM691 223q-91 0 -154 -63t-63 -154.5t63 -154.5t154 -63t154.5 63t63.5 154.5t-63.5 154.5t-154.5 63zM838 -33h-115v-115h-70v115h-115v77h115v115h70v-115h115v-77z" />
    <glyph glyph-name="sbtn10" unicode="&#xe681;" horiz-adv-x="1025" 
d="M251 597q87 86 209 86t208.5 -86.5t86.5 -208.5v-45l75 75q5 5 12 5t12.5 -5t5.5 -12.5t-5 -12.5l-105 -104q-5 -5 -12 -5t-12 5l-105 104q-5 5 -5 12.5t5 12.5t12.5 5t12.5 -5l75 -75v45q0 108 -76.5 184.5t-184.5 76.5t-184.5 -76.5t-76.5 -184.5t76.5 -184.5
t184.5 -76.5q7 0 12 -5t5 -12t-5 -12.5t-12 -5.5q-123 0 -209.5 87t-86.5 209t87 209v0z" />
    <glyph glyph-name="sbtn04" unicode="&#xe601;" 
d="M789 626h-165l-45 45q-6 7 -15 7h-113q-9 0 -15 -6l-45 -46h-165q-9 0 -15 -6t-6 -14t6 -14t15 -6h173q10 0 16 7l44 45h96l46 -46q6 -6 15 -6v0h173q8 0 14 6t6 14t-6 14t-14 6zM418 200v304q0 8 -6 14t-14.5 6t-15 -6t-6.5 -14v-304q0 -9 6.5 -15t15 -6t14.5 6t6 15z
M738.5 539q-8.5 0 -14.5 -6t-6 -14v0v-361q0 -12 -8 -20l-1 -1q-8 -7 -19 -7h-365q-12 0 -20.5 8t-8.5 20v361q0 8 -6 14t-14.5 6t-14.5 -6t-6 -14v-361q0 -29 20.5 -49t49.5 -20h365q27 0 48 19l1 1q20 20 20 49v361q0 8 -6 14t-14.5 6zM528 200v304q0 8 -6 14t-14.5 6
t-14.5 -6t-6 -14v-304q0 -9 6 -15t14.5 -6t14.5 6t6 15zM638 200v304q0 8 -6 14t-14.5 6t-14.5 -6t-6 -14v-304q0 -9 6 -15t14.5 -6t14.5 6t6 15z" />
    <glyph glyph-name="sbtn07" unicode="&#xe633;" 
d="M837 375q5 4 5 10v0v1t-1 1q0 5 -4 9l-247 251q-10 10 -20 0t0 -21l223 -226h-429q-6 0 -10.5 -4t-4.5 -10t4.5 -10.5t10.5 -4.5h429l-226 -229q-10 -11 0.5 -21t20.5 0zM397 662h-168q-19 0 -33 -13.5t-14 -32.5v-463q0 -20 14 -33.5t33 -13.5h168q6 0 10 4t4 10
t-4 10.5t-10 4.5h-168q-7 0 -12.5 5t-5.5 13v463q0 7 5.5 12t12.5 5h168q6 0 10 4.5t4 10.5t-4 10t-10 4z" />
    <glyph glyph-name="user" unicode="&#xe6c9;" 
d="M662 373q39 35 61.5 85t22.5 107q0 103 -67.5 175.5t-162.5 72.5t-162.5 -72.5t-67.5 -175.5t68 -176q7 -6 19.5 -16t46 -27t68 -23.5t82.5 4.5t92 46v0zM816 202l-125 113q-17 -14 -38 -26t-57.5 -23.5t-74.5 -12.5t-89.5 15t-104.5 50q-28 -22 -55.5 -46t-63 -61
t-54.5 -74t-13 -66q0 -3 1 -9t10 -21t24 -27t47.5 -22t76.5 -11q19 -2 51 -3.5t116.5 -3t153 1.5t135 15.5t88.5 35.5v0q33 23 30 68q-4 48 -58 107v0zM816 202z" />
    <glyph glyph-name="merror" unicode="&#xe6e6;" 
d="M505 871q-96 0 -184 -37.5t-151.5 -101t-101 -151t-37.5 -184t37.5 -184.5t101 -151.5t151.5 -101t184.5 -37.5t184 37.5t151 101t101 151.5t37.5 184.5t-37.5 184t-101 151t-151 101t-184.5 37.5v0zM502 120q-21 0 -35.5 14t-14.5 34.5t14.5 34.5t35.5 14t35.5 -14
t14.5 -34.5t-14.5 -34.5t-35.5 -14v0zM690 453q-21 -32 -87 -88q-35 -29 -43.5 -46.5t-7.5 -62.5h-100v26q0 48 16 79.5t64 70.5t57 51q15 19 15 42q0 32 -26 54.5t-69 22.5q-42 0 -70 -23q-13 -11 -24 -33t-14 -40q-2 -10 -27.5 -15t-50 2t-23.5 26q1 31 16.5 62.5
t42.5 55.5q56 49 145 49q95 0 150.5 -49.5t55.5 -114.5q0 -36 -20 -69v0zM690 453z" />
    <glyph glyph-name="menu00" unicode="&#xe603;" 
d="M302 428q-9 0 -16 7t-7 16t7 16t16 7h411q10 0 16.5 -7t6.5 -16t-6.5 -16t-16.5 -7h-411zM279 622q0 9 7 16t16 7h411q10 0 16.5 -7t6.5 -16t-6.5 -16t-16.5 -7h-411q-9 0 -16 7t-7 16zM814 154l-123 -146v146h123zM182 804h658v-604h-195v-232h-463v836zM137 849v-926
h541l208 245v681h-749z" />
    <glyph glyph-name="btn67" unicode="&#xe674;" 
d="M512 40l-359 165l-55 27q0 -19 5.5 -39t17.5 -27l352 -157q23 -11 38 -11t40 11l352 157q11 6 17 26.5t6 39.5l-55 -27zM121 496l352 -158q23 -11 38 -11t40 11l352 158q19 9 19.5 37.5t-19.5 39.5l-352 185q-21 12 -37.5 12t-40.5 -12l-352 -185q-20 -13 -20 -39.5
t20 -37.5zM512 727q1 0 1 -1l358 -191l-359 -151l-359 151zM513 726l-1 1zM121 331l352 -157q23 -11 38 -11t40 11l352 157q11 5 17 26t6 40q-54 -27 -55 -27l-359 -165l-359 165l-55 27q0 -19 5.5 -39t17.5 -27z" />
    <glyph glyph-name="sbtn06" unicode="&#xe76a;" 
d="M817 398h-610q-6 0 -10 -4t-4 -10t4 -10t10 -4h610q6 0 10 4t4 10t-4 10t-10 4z" />
    <glyph glyph-name="btn10" unicode="&#xe680;" 
d="M780 500q-84 0 -140 63l-217 -135q5 -22 5 -44q0 -33 -12 -65l201 -147q24 44 67.5 70t95.5 26q76 0 130 -53t54 -128.5t-54 -129t-130 -53.5t-130 53t-54 129l-234 159q-51 -43 -118 -43q-76 0 -130 53.5t-54 128.5t54 128.5t130 53.5q85 0 140 -64l217 136q-5 22 -5 44
q0 75 54 128.5t130 53.5t130 -53.5t54 -128.5t-54 -128.5t-130 -53.5zM779.5 -30q48.5 0 83 34t34.5 82t-34.5 82t-83 34t-82.5 -34t-34 -82t34 -82t82.5 -34zM244.5 500q-48.5 0 -83 -34t-34.5 -82t34.5 -82t83 -34t82.5 34t34 82t-34 82t-82.5 34zM779.5 798
q-48.5 0 -82.5 -34t-34 -82t34 -82t82.5 -34t83 34t34.5 82t-34.5 82t-83 34z" />
    <glyph glyph-name="btn35" unicode="&#xe647;" 
d="M677 664h-503q-46 0 -79 -33t-33 -79v-503q0 -46 33 -79t79 -33h503q47 0 79.5 33t32.5 79v503q0 46 -32.5 79t-79.5 33zM733 49q0 -23 -16.5 -39.5t-39.5 -16.5h-503q-23 0 -39.5 16.5t-16.5 39.5v503q0 23 16.5 39.5t39.5 16.5h503q23 0 39.5 -16.5t16.5 -39.5v-503z
M230 440h391v56h-391v-56zM230 328h391v56h-391v-56zM230 217h391v56h-391v-56zM230 105h224v56h-224v-56zM845 832h-503q-46 0 -79 -33t-33 -79h56q0 23 16.5 39.5t39.5 16.5h503q23 0 39.5 -16.5t16.5 -39.5v-503q0 -23 -16.5 -39.5t-39.5 -16.5v-56q46 0 79 32.5t33 79.5
v503q0 46 -33 79t-79 33z" />
    <glyph glyph-name="btn42" unicode="&#xe654;" 
d="M665 651h-130v-65h130q44 0 84 -17q39 -17 69.5 -47.5t46.5 -69.5q18 -40 18 -84v-105q0 -44 -18 -85q-16 -39 -46.5 -69.5t-69.5 -46.5q-40 -17 -84 -17h-306q-44 0 -84 17q-39 16 -69.5 46.5t-47.5 69.5q-15 36 -16 75h-66q4 -114 86.5 -194t196.5 -80h306
q116 0 199.5 83.5t83.5 200.5v105q0 117 -83 200t-200 83zM490 446q5 -5 11.5 -2t6.5 10v324q0 7 -6.5 10t-11.5 -2l-176 -162q-9 -8 0 -16z" />
    <glyph glyph-name="btn02" unicode="&#xe657;" 
d="M862.5 688.5q-59.5 59.5 -136 91t-160.5 31.5t-160.5 -31.5t-136 -91t-91 -136t-31.5 -160.5q0 -21 2 -43l-54 50q-11 9 -24.5 8t-23 -11t-8.5 -23.5t11 -23.5l113 -102q10 -9 22 -9q4 0 7 1q1 -1 3 -1q15 0 25 12l102 113q9 11 8 24.5t-11 23t-24 8.5t-23 -11l-55 -62
q-3 23 -3 46q0 96 47 177t128 128.5t177 47.5t177 -47.5t128.5 -128.5t47.5 -176.5t-47.5 -177t-128.5 -128.5t-177 -47q-144 0 -247 100q-10 10 -23.5 10t-23 -10t-9.5 -23.5t10 -23.5q59 -58 134.5 -89t158.5 -31q84 0 160.5 32t136 91t91 135.5t31.5 160.5t-31.5 160.5
t-91 136zM544.5 596q-13.5 0 -23.5 -9.5t-10 -23.5v-201q0 -14 10 -23.5t23 -9.5h201q14 0 23.5 9.5t9.5 23.5t-9.5 23.5t-23.5 9.5h-167v168q0 14 -10 23.5t-23.5 9.5z" />
    <glyph glyph-name="menu28" unicode="&#xe61b;" 
d="M91 529l370 -254q21 -14 49.5 -14.5t48.5 13.5l370 255q20 14 20 33.5t-20 33.5l-371 255q-20 14 -49 14t-49 -14l-369 -254q-20 -14 -20 -34t20 -34v0zM207 587l267 178q15 10 36 10t35 -10l268 -178q15 -10 15 -23.5t-14 -23.5l-268 -178q-15 -10 -35.5 -10t-35.5 10
l-268 178q-15 10 -15 24t15 23zM814 361l-268 -178q-15 -9 -35.5 -9t-35.5 9l-268 179q-9 6 -13 14h-122q4 -15 19 -25l370 -255q21 -14 49.5 -14t48.5 14l370 254q15 11 19 26h-122q-3 -9 -12 -15zM814 182l-268 -178q-15 -10 -35.5 -10t-35.5 10l-268 179q-9 6 -13 14
h-122q4 -15 19 -25l370 -255q21 -14 49.5 -14t48.5 14l370 254q15 11 19 26h-122q-3 -9 -12 -15z" />
    <glyph glyph-name="btn13" unicode="&#xe60f;" 
d="M197 688q0 29 20 49t49 20h602q9 0 15.5 6.5t6.5 16t-6.5 16t-15.5 6.5h-602q-47 0 -80.5 -33.5t-33.5 -80.5v-610q0 -47 33.5 -80.5t80.5 -33.5h624v655h-624q-29 0 -49 20.5t-20 48.5v0v0zM845 9h-579q-29 0 -49 20t-20 49v519q31 -23 69 -23h579v-565v0v0zM845 9z
M868 712h-597q-9 0 -16 -6.5t-7 -16t7 -16t16 -6.5h597q9 0 15.5 6.5t6.5 16t-6.5 16t-15.5 6.5v0v0zM868 712zM398 241q7 -8 5 -18l-16 -97q-3 -17 7 -29q9 -11 23 -11q9 0 19 5l86 46q3 1 9.5 1t9.5 -1l87 -46q9 -5 18 -5q15 0 23 11q10 12 7 29l-16 97q-2 10 6 18l70 68
q16 16 10 35t-29 22l-97 15q-10 1 -15 10l-43 88q-11 21 -30.5 21t-30.5 -21l-43 -88q-5 -9 -15 -10l-97 -15q-23 -3 -29 -22t10 -35zM449 336q15 2 29 12t21 24l33 66l33 -66q6 -14 20 -24t29 -12l73 -11l-53 -52q-11 -10 -16 -26.5t-3 -31.5l13 -73l-66 35q-13 6 -30.5 6
t-30.5 -6l-66 -35l13 73q2 15 -3 31.5t-16 26.5l-53 52zM449 336z" />
    <glyph glyph-name="mdata" unicode="&#xe6e4;" 
d="M271 309h111v111h-111v-111zM271 143h111v111h-111v-111zM455 309h112v111h-112v-111zM455 143h112v111h-112v-111zM640 309h112v111h-112v-111zM770 753h-17v-93h-112v93h-258v-93h-112v93h-17q-46 0 -78.5 -32.5t-32.5 -78.5v-516q0 -46 32.5 -78.5t78.5 -32.5h516
q46 0 78.5 32.5t32.5 78.5v516q0 45 -32.5 78t-78.5 33zM766 51h-513q-24 0 -48.5 24.5t-24.5 49.5v387h663v-383q0 -25 -26 -51.5t-51 -26.5v0zM640 143h112v111h-112v-111z" />
    <glyph glyph-name="btn68" unicode="&#xe675;" 
d="M893 295h-389v-16h405v178h-292v-16h276v-146zM98 506h438v-179h33v211h-503v-276h341v33h-309v211zM131 473h389v16h-405v-178h292v16h-276v146zM617 506v-33h309v-211h-438v179h-33v-211h503v276h-341z" />
    <glyph glyph-name="btn45" unicode="&#xe65a;" 
d="M385 111q5 -5 11.5 -5t10.5 5l520 519q2 2 3 4t1 4v5q0 3 -1 5t-3 4l-34 33q-4 5 -10.5 5t-11.5 -5l-478 -478l-233 234q-5 5 -11.5 5t-10.5 -5l-34 -33q-2 -4 -3.5 -8t0 -8t3.5 -6z" />
    <glyph glyph-name="menu07" unicode="&#xe671;" 
d="M171 -4q-21 0 -35.5 14.5t-14.5 35.5v655q0 21 14.5 35.5t35.5 14.5h307v-53h-304v-649h649v304h53v-307q0 -21 -14.5 -35.5t-35.5 -14.5h-655v0zM238 137v67h511v-67h-511zM237 310v66h485v-66h-485zM238 479v67h346v-67h-346zM740 423q-6 0 -10.5 4.5t-4.5 10.5v18
q0 11 -10 14h-1l-22 10q-3 1 -7 1q-7 0 -11 -4l-13 -13q-4 -4 -10 -4t-11 4l-21 22q-4 4 -4 10t4 11l13 12q7 8 2 18v0l-9 23v0q-4 11 -15 11h-18q-6 0 -10 4t-4 10v31q0 6 4 10t10 4h18q11 0 15 11v0l9 23v0q5 10 -2 18l-13 12q-4 5 -4 11t4 10l21 22q5 4 11 4t10 -4
l13 -13q4 -4 11 -4q4 0 7 1v1l23 9q10 3 10 14v18q0 6 4.5 10.5t10.5 4.5h30q6 0 10.5 -4.5t4.5 -10.5v-18q0 -11 11 -14v0l23 -10q3 -1 6 -1q7 0 11 4l13 13q4 4 10.5 4t10.5 -4l21 -22q5 -4 5 -10t-5 -11l-12 -12q-8 -8 -3 -18v0l9 -23h1q3 -11 14 -11h18q6 0 10.5 -4
t4.5 -10v-31q0 -6 -4.5 -10t-10.5 -4h-18q-11 0 -14 -11h-1l-9 -23v0q-5 -10 3 -18l12 -12q5 -5 5 -11t-5 -10l-21 -22q-4 -4 -10.5 -4t-10.5 4l-13 13q-4 4 -11 4q-3 0 -6 -1v-1l-23 -9q-11 -3 -11 -14v-18q0 -6 -4.5 -10.5t-10.5 -4.5h-30zM755.5 665q-26.5 0 -45.5 -19
t-19 -45.5t19 -45t45.5 -18.5t45 18.5t18.5 45t-18.5 45.5t-45 19z" />
    <glyph glyph-name="btn44" unicode="&#xe65b;" 
d="M755 553h-490q-9 0 -15.5 6t-6.5 15.5t6.5 15.5t15.5 6h490q9 0 15.5 -6t6.5 -15.5t-6.5 -15.5t-15.5 -6zM475 179v0h-210q-9 0 -15.5 6.5t-6.5 15.5t6.5 15.5t15.5 6.5v0h210q9 0 15.5 -6.5t6.5 -15.5t-6.5 -15.5t-15.5 -6.5zM755 366h-490q-9 0 -15.5 6.5t-6.5 15.5
t6.5 15.5t15.5 6.5h490q9 0 15.5 -6.5t6.5 -15.5t-6.5 -15.5t-15.5 -6.5zM705 -25h-43q-9 0 -15.5 6.5t-6.5 15.5t6.5 15.5t15.5 6.5h43q11 1 39 22q29 23 64 58q34 34 57 64q21 28 23 39v417q0 54 -38 92t-91 38h-498q-54 0 -92 -38t-38 -92v-471q0 -53 38 -91t92 -38h212
q9 0 15.5 -6.5t6.5 -15.5t-6.5 -15.5t-15.5 -6.5h-212q-72 0 -122.5 51t-50.5 122v471q0 72 50.5 122.5t122.5 50.5h498q71 0 122 -50.5t51 -122.5v-417q0 -22 -30 -62q-25 -33 -62 -71q-38 -38 -71 -63q-41 -31 -64 -31v0zM658 -20q-9 0 -15 6t-6 15v110q0 64 45.5 110
t109.5 46h96q9 0 15.5 -6.5t6.5 -15.5t-6.5 -15.5t-15.5 -6.5h-96q-46 0 -79 -33t-33 -79v-110q0 -9 -6.5 -15t-15.5 -6v0z" />
    <glyph glyph-name="sbtn11" unicode="&#xe635;" 
d="M514 22l293 293h-169v406h-251v-406h-169zM417 288v399h189v-398h134l-226 -226l-228 225h131z" />
    <glyph glyph-name="radio" unicode="&#xe67e;" 
d="M512 720q-91 0 -168.5 -45t-122.5 -122.5t-45 -168.5t45 -168.5t122.5 -122.5t168.5 -45t168.5 45t122.5 122.5t45 168.5t-45 168.5t-122.5 122.5t-168.5 45zM512 94q-120 0 -205 85t-85 205t85 205t205 85t205 -85t85 -205t-85 -205t-205 -85z" />
    <glyph glyph-name="fold" unicode="&#xe612;" 
d="M329 766q0 13 -9.5 22.5t-22.5 9.5h-174q-13 0 -22.5 -9.5t-9.5 -22.5v-173q0 -14 9.5 -23t22.5 -9h174q13 0 22.5 9t9.5 23v173v0zM627 766q0 13 -9 22.5t-23 9.5h-173q-13 0 -22.5 -9.5t-9.5 -22.5v-173q0 -14 9.5 -23t22.5 -9h173q14 0 23 9t9 23v173zM933 766
q0 13 -9.5 22.5t-22.5 9.5h-173q-14 0 -23.5 -9.5t-9.5 -22.5v-173q0 -14 9.5 -23t23.5 -9h173q13 0 22.5 9t9.5 23v173zM329 474q0 13 -9.5 22.5t-22.5 9.5h-174q-13 0 -22.5 -9.5t-9.5 -22.5v-173q0 -14 9.5 -23t22.5 -9h174q13 0 22.5 9t9.5 23v173v0zM627 474
q0 13 -9 22.5t-23 9.5h-173q-13 0 -22.5 -9.5t-9.5 -22.5v-173q0 -14 9.5 -23t22.5 -9h173q14 0 23 9t9 23v173zM933 474q0 13 -9.5 22.5t-22.5 9.5h-173q-14 0 -23.5 -9.5t-9.5 -22.5v-173q0 -14 9.5 -23t23.5 -9h173q13 0 22.5 9t9.5 23v173zM329 175q0 14 -9.5 23
t-22.5 9h-174q-13 0 -22.5 -9t-9.5 -23v-173q0 -13 9.5 -22.5t22.5 -9.5h174q13 0 22.5 9.5t9.5 22.5v173v0zM627 175q0 14 -9 23t-23 9h-173q-13 0 -22.5 -9t-9.5 -23v-173q0 -13 9.5 -22.5t22.5 -9.5h173q14 0 23 9.5t9 22.5v173zM933 175q0 14 -9.5 23t-22.5 9h-173
q-14 0 -23.5 -9t-9.5 -23v-173q0 -13 9.5 -22.5t23.5 -9.5h173q13 0 22.5 9.5t9.5 22.5v173z" />
    <glyph glyph-name="btn63" unicode="&#xe6dc;" 
d="M930 409h-56q-9 135 -105 231t-231 105v57q0 10 -7.5 17.5t-18 7.5t-18 -7.5t-7.5 -17.5v-57q-135 -10 -230.5 -105.5t-104.5 -230.5h-58q-10 0 -17.5 -7.5t-7.5 -18t7.5 -18t17.5 -7.5h58q9 -134 104.5 -230t230.5 -105v-57q0 -11 7.5 -18.5t18 -7.5t18 7.5t7.5 18.5v57
q135 9 231 104.5t105 230.5h56q11 0 18.5 7.5t7.5 18t-7.5 18t-18.5 7.5zM538 74v57q0 10 -7.5 17.5t-18 7.5t-18 -7.5t-7.5 -17.5v-57q-113 10 -193.5 90.5t-90.5 193.5h56q11 0 18.5 7.5t7.5 18t-7.5 18t-18.5 7.5h-56q10 113 90.5 194t193.5 90v-56q0 -11 7.5 -18.5
t18 -7.5t18 7.5t7.5 18.5v57q113 -9 194.5 -90t90.5 -195h-58q-10 0 -17.5 -7.5t-7.5 -18t7.5 -18t17.5 -7.5h58q-9 -113 -90.5 -194t-194.5 -90zM513.5 525q-58.5 0 -100.5 -41.5t-42 -100t42 -100t100.5 -41.5t100 41.5t41.5 100t-41.5 100t-100 41.5zM513.5 293
q-37.5 0 -64 26.5t-26.5 64t26.5 64t64 26.5t64 -26.5t26.5 -64t-26.5 -64t-64 -26.5z" />
    <glyph glyph-name="checkbox" unicode="&#xe631;" 
d="M761 61h-498q-30 0 -52 22t-22 52v498q0 30 22 52t52 22h498q30 0 52 -22t22 -52v-498q0 -30 -22 -52t-52 -22v0zM263 657q-10 0 -17 -7t-7 -17v-498q0 -10 7 -17t17 -7h498q10 0 17 7t7 17v498q0 10 -7 17t-17 7h-498zM263 657z" />
    <glyph glyph-name="btn69" unicode="&#xe678;" 
d="M989 322q-9 48 -47 87q-43 44 -100 53q-2 0 -37 4v6q2 78 -34 143q-44 79 -124 118t-170 25t-155.5 -79t-79.5 -155q-1 -5 -6 -6q-80 -2 -137 -56q-76 -71 -65 -181q6 -71 58 -124q58 -59 136 -63q13 0 135 -1h2.5h1.5v40h-115q-95 0 -148 74q-45 64 -27 136
q17 71 76 108q52 33 109 27q12 -1 14 0.5t3 13.5q2 47 24 91q63 124 200 137q124 11 207 -89q69 -85 53 -192q-2 -9 0 -11.5t11 -2.5q48 1 72 -5q51 -14 82.5 -60.5t23.5 -99.5q-7 -53 -47.5 -89.5t-94.5 -37.5h-133h-9h-10v-40h149q15 0 24 1q62 7 106 50q72 71 52 178z
M486 383q-48 -40 -51 -43q-45 -38 -54 -46q-2 -2 -8 -3t-6 6v39q0 4 6 9q14 13 72 62q24 21 58 50q9 8 18 0q104 -90 128 -110q9 -8 8 -17v-15.5v-14.5q0 -8 -3 -8q-6 -2 -11 1q-7 6 -45 39q-36 31 -55 47l-5 4v-8v-352q0 -8 -1.5 -9.5t-9.5 -1.5h-32q-6 0 -7.5 1.5
t-1.5 8.5v352v9z" />
    <glyph glyph-name="btn38" unicode="&#xe677;" 
d="M792 315l-242 -243q-61 -61 -147.5 -61t-148 61t-61.5 148t61 148l351 350q38 38 92.5 37.5t93 -39t38.5 -92.5t-39 -93v0l-350 -349q-16 -15 -38 -15t-37.5 15.5t-15.5 37.5t16 38v0v0v0l296 294q9 10 9 22.5t-9.5 22t-22 9.5t-22.5 -9l-296 -295v0v0v0v0
q-34 -34 -34 -82.5t34 -81.5q35 -35 83.5 -35t82.5 35v0v0l349 348q58 58 58 139t-58 138.5t-138 56.5t-137 -58v0l-350 -349q-81 -81 -81 -194t81 -192q80 -80 193 -80t192 80l243 245q10 10 10 22.5t-10 22.5q-9 8 -23 8t-23 -10z" />
    <glyph glyph-name="menu05" unicode="&#xe608;" 
d="M199 565q0 -96 66.5 -165t161.5 -73q5 -1 9 -1q104 0 187 -61.5t114 -160.5q15 -46 15 -94q0 -12 8.5 -20.5t20.5 -8.5t20.5 8.5t8.5 20.5q0 57 -17 111q-26 86 -87 149t-144 92q52 33 83 86.5t31 116.5q0 99 -70 169t-168.5 70t-168.5 -70t-70 -169v0zM437 385
q-74 0 -126.5 53t-52.5 127.5t52.5 127t127 52.5t127 -52.5t52.5 -127t-52.5 -127.5t-127.5 -53v0zM85 106q-22 -66 -22 -102q0 -12 8.5 -20.5t21 -8.5t21 8.5t8.5 20.5q0 27 18 84l5 14q28 89 96 147q9 7 10 19.5t-7 21.5t-20 10t-21 -7q-81 -69 -114 -173l-4 -14v0z
M632 348q7 -10 19 -12q83 -14 147 -70t89 -136q13 -43 13 -88q0 -13 8.5 -21.5t21 -8.5t21 8.5t8.5 21.5q0 54 -16 105q-24 77 -79 136t-129 89q44 32 69.5 81t25.5 104q0 60 -28.5 111t-78.5 83q-10 6 -22 3.5t-18.5 -13t-3.5 -22.5t13 -18q37 -23 58 -61.5t21 -82.5
q0 -57 -34.5 -102.5t-89.5 -60.5q-12 -3 -18 -13.5t-2 -22.5q1 -5 5 -10v0z" />
    <glyph glyph-name="btn49" unicode="&#xe660;" 
d="M403 -20q-3 0 -6 1q-103 29 -180 104q-8 8 -7.5 19.5t9.5 18.5q24 19 30 49t-9 56.5t-44 36.5t-57 -2q-11 -4 -22 1q-10 5 -13 17q-13 51 -13 103t13 103q3 12 13.5 17t21.5 1q28 -12 57 -2t44 36.5t9 56.5t-30 49q-9 7 -9.5 18.5t7.5 19.5q77 75 180 104q11 3 21 -4
q9 -6 11 -17q4 -31 27 -51t53 -20q20 0 45.5 22t35.5 40q-1 6 1 12q3 10 12.5 15t19.5 3v0v0v0q105 -32 179 -104q8 -8 7.5 -19.5t-9.5 -18.5q-24 -19 -30 -49t9 -56.5t44 -36.5t57 2q11 4 21.5 -1t13.5 -17q13 -51 13 -103t-13 -103q-3 -12 -13.5 -17t-21.5 -1
q-28 12 -57 2t-44 -36.5t-9 -56.5t30 -49q9 -7 9.5 -18.5t-7.5 -19.5q-77 -75 -180 -104q-11 -3 -21 4q-9 6 -11 18q-4 30 -27 50t-53.5 20t-53.5 -20t-27 -51q-2 -11 -11 -17q-7 -5 -15 -5v0zM272 104q51 -43 114 -66q14 39 48 62.5t75.5 23.5t75.5 -23.5t48 -62.5
q63 23 114 66q-26 32 -29.5 73t17.5 77t58.5 53.5t77.5 11.5q6 32 6 65t-6 65q-40 -6 -77.5 11.5t-58.5 53.5t-17.5 77t29.5 73q-50 42 -114 65q-19 -31 -54.5 -58t-69.5 -27q-41 0 -75 24t-48 62q-63 -23 -114 -66q26 -32 29.5 -73t-17.5 -77t-58.5 -53.5t-77.5 -11.5
q-6 -32 -6 -65t6 -65q40 6 77.5 -11.5t58.5 -53.5t17.5 -77t-29.5 -73v0zM509.5 251q-54.5 0 -93.5 39t-39 94t39 94t93.5 39t93.5 -39t39 -94t-39 -94t-93.5 -39zM509.5 466q-33.5 0 -57.5 -24t-24 -58t24 -58t57.5 -24t57.5 24t24 58t-24 58t-57.5 24z" />
    <glyph glyph-name="sbtn03" unicode="&#xe63d;" 
d="M721 123h-418q-21 0 -36.5 15.5t-15.5 36.5v418q0 21 15.5 36.5t36.5 15.5h296q7 0 12 -5t5 -13v0q0 -7 -5 -12t-12 -5h-296q-7 0 -12 -5t-5 -12v-418q0 -7 5 -12t12 -5h418q7 0 12 5t5 12v157q0 7 5 12t12 5v0q8 0 13 -5t5 -12v-157q0 -21 -15.5 -36.5t-36.5 -15.5z
M504 305q-7 -8 -18 -8t-19 8t-8 18.5t8 18.5l261 261q7 7 18 7t19 -7.5t8 -18.5t-8 -19z" />
    <glyph glyph-name="btn54" unicode="&#xe6e1;" 
d="M804 -9h-588q-41 0 -69.5 28.5t-28.5 69.5v588q0 41 28.5 69.5t69.5 28.5h588q41 0 69.5 -28.5t28.5 -69.5v-588q0 -41 -28.5 -69.5t-69.5 -28.5zM853 677q0 20 -14 34.5t-35 14.5h-588q-20 0 -34.5 -14.5t-14.5 -34.5v-588q0 -20 14.5 -34.5t34.5 -14.5h588
q21 0 35 14.5t14 34.5v588zM731 89h-441q-11 0 -18 7t-7 17.5t7 17.5t18 7h441q10 0 17 -7t7 -17.5t-7 -17.5t-17 -7zM528 195q-7 -8 -18 -7q-11 -1 -19 7l-121 146q-7 7 -7 17.5t7 17.5t17.5 7t17.5 -7l81 -98v375q0 10 7 17t17 7t17.5 -7t7.5 -17v-374l80 97q7 7 17 7
t17.5 -7t7.5 -17.5t-7 -17.5z" />
    <glyph glyph-name="scsuccess" unicode="&#xe84e;" 
d="M511 870q-98 0 -187 -38t-153.5 -102.5t-102.5 -153.5t-38 -187t38 -187.5t102.5 -154.5t153.5 -103t187 -38t187.5 38t154.5 102.5t103 154t38 188t-38 188t-103 153.5t-154.5 102t-187.5 38zM773 516l-303 -307q-11 -11 -26 -11t-26 11l-134 132q-10 10 -12 23.5
t6 24.5q10 14 27.5 15.5t28.5 -9.5l97 -96q13 -13 26 0l263 267q10 10 23 11.5t24 -6.5q14 -9 15.5 -26t-9.5 -29z" />
    <glyph glyph-name="menu21" unicode="&#xe6db;" 
d="M728 509h-409q-12 0 -20.5 -8.5t-8.5 -20.5t8.5 -20.5t20.5 -8.5h409q12 0 20.5 8.5t8.5 20.5t-8.5 20.5t-20.5 8.5zM728 340h-409q-12 0 -20.5 -8t-8.5 -20t8.5 -20.5t20.5 -8.5h409q12 0 20.5 8.5t8.5 20.5t-8.5 20t-20.5 8zM728 172h-409q-12 0 -20.5 -8.5t-8.5 -20.5
t8.5 -20.5t20.5 -8.5h409q12 0 20.5 8.5t8.5 20.5t-8.5 20.5t-20.5 8.5zM879 647q-6 6 -71 65q-95 88 -105 97l-8 9h-32v0v0h-452q-19 0 -32 -13t-13 -32v-747q0 -18 13 -31.5t32 -13.5h631q19 0 32 13.5t13 31.5v613zM769 670q31 -28 43 -39h-120v110q21 -19 77 -71z
M224 39v721h410v-158q0 -12 8.5 -20.5t20.5 -8.5h166v-534h-605z" />
    <glyph glyph-name="btn05" unicode="&#xe658;" 
d="M849 -61h-675q-11 0 -18.5 8t-7.5 19v614q0 10 6 17l6 8l222 215q8 12 22 12h445q11 0 18.5 -7.5t7.5 -18.5v-840q0 -11 -7.5 -19t-18.5 -8v0zM414 778l-189 -183h189v183zM823 779h-356v-211q0 -11 -8 -18.5t-18 -7.5h-2h-1h-238v-550h623v787zM464 212l179 179l45 -45
l-224 -224l-129 129l45 45zM464 212z" />
    <glyph glyph-name="btn58" unicode="&#xe670;" 
d="M939 717q-30 59 -89 78v0q-52 18 -100 2h-1l-224 -104q-33 -16 -49 -30.5t-25 -40.5q-10 -33 -8 -62v0v0v0v0v-6h59v4v0q-2 25 7 45q4 12 12 21t14.5 12.5t24.5 13.5l200 92q35 10 70 -1v0q16 -4 37 -16.5t27 -31.5q3 -9 4.5 -17.5t1.5 -15t-0.5 -12t-2 -10.5t-2 -7.5
t-2.5 -6l-2 -3.5q0 -1 -2.5 -6t-3.5 -6.5t-3 -6t-3.5 -6t-4 -5.5t-5 -6.5l-5.5 -5.5t-6.5 -6t-7.5 -7l-186 -86l-2 -2q-24 -16 -39.5 -20t-43.5 3v0q-24 8 -40 24l-35 -48q24 -22 54 -32v0q25 -5 29 -5t29 3q36 5 64 24l205 96l1 2q45 29 61 77q22 58 -8 115v0zM155 -26
q58 -30 120 -11v0q50 14 82 56l1 2l120 216q18 30 22 49.5t-2 51.5q-10 31 -31 54v0v0v0v0l-5 5l-49 -34l3 -3v0q16 -19 21 -40q3 -10 3.5 -17.5t-3 -16.5t-6 -14.5t-10.5 -18.5l-107 -192q-21 -28 -58 -39v0q-9 -3 -21.5 -5.5t-30 -1.5t-28.5 9q-38 30 -38 61q-1 1 -2 9.5
t-1.5 10.5t-1 9.5t0 12t2 12t3.5 15.5l99 177v2q11 28 22.5 41.5t35.5 20.5v0q22 7 46 5l2 59q-26 4 -64 -5v0q-11 -3 -20 -8t-12.5 -8t-15.5 -16q-26 -23 -38 -56l-109 -201v-2q-19 -46 -3 -97q16 -61 73 -92v0zM509 544l37 -35l-167 -163l-37 35zM390 603q3 -8 6 -8t4 10
l14 118q2 9 -3.5 14t-15.5 5l-29 -3q-8 -1 -12 -7.5t-2 -14.5zM206 648l116 -42q8 -2 9.5 0t-5.5 8l-80 82q-4 6 -12.5 5.5t-14.5 -7.5l-19 -22q-6 -7 -4 -14.5t10 -9.5v0zM208 506l115 28q19 6 0 8l-115 20q-8 1 -14.5 -4.5t-6.5 -13.5v-22q0 -9 6.5 -14t14.5 -2v0z
M208 506z" />
    <glyph glyph-name="btn66" unicode="&#xe672;" 
d="M852 287v-180h-682v180h-52v-233h786v233h-52zM497 182q62 0 113 42.5t63 95.5h220l-54 395h-657l-54 -395h193q9 -62 59 -100t117 -38zM226 664h569l41 -295h-211v-33q-6 -38 -44 -71t-84 -33q-48 0 -83.5 24t-42.5 68v45h-185z" />
    <glyph glyph-name="menu18" unicode="&#xe656;" 
d="M751 360q-46 0 -78.5 -32t-32.5 -77.5t32.5 -77.5t78.5 -32t78.5 32t32.5 77.5t-32.5 77.5t-78.5 32zM751 198q-23 0 -39 16t-16 38t16 38t39 16t39.5 -16t16.5 -38t-16.5 -38t-39.5 -16zM850 561h-16l10 10q6 9 6 15q0 9 -6 15l-223 219q-6 7 -16 7t-15 -7l-64 -63
l-116 66q-8 5 -17 2.5t-14 -10.5l-149 -254h-56q-46 0 -79 -32t-33 -78v-399q0 -46 33 -78.5t79 -32.5h676q46 0 79 32.5t33 78.5v399q0 46 -33 78t-79 32zM605 758l175 -172l-16 -15q-4 -3 -6 -10h-352zM351 517h-15h7h8zM407 743l73 -32l-152 -150h-32zM902 58
q0 -26 -19 -45t-46 -19h-649q-26 0 -45 19t-19 45v383q0 27 19 46t45 19v1h649q27 0 46 -19t19 -45v-385v0z" />
    <glyph glyph-name="menu13" unicode="&#xe717;" 
d="M777 32v424q0 111 -79.5 190t-188.5 79q-112 0 -191 -79t-79 -190v-424h-72v424q0 69 27 133q26 61 73 108.5t109 73.5q63 27 132 27q68 0 132 -27q61 -26 108.5 -73.5t73.5 -108.5q27 -64 27 -133v-423zM921 -38h-818q-15 0 -25.5 10.5t-10.5 25.5t10.5 25.5t24.5 10.5
h817q16 0 27 -10.5t11 -25.5t-10.5 -25.5t-25.5 -10.5zM622 379h-92v199l-130 -245h95v-190z" />
    <glyph glyph-name="btn47" unicode="&#xe682;" 
d="M731 570l-33 33l-186 -185l-186 185l-33 -33l185 -186l-185 -186l33 -33l186 185l186 -185l33 33l-185 186zM507 834q-110 0 -208 -51t-161 -142q-5 -8 -3.5 -17.5t9.5 -15t17.5 -4t15.5 9.5q56 81 144 127t186 46q110 0 202.5 -54t146.5 -147t54 -202t-54 -202
t-146.5 -147t-202.5 -54q-141 0 -252.5 90t-141.5 229q-2 9 -10 14.5t-17.5 3.5t-15 -10.5t-3.5 -17.5q33 -155 157.5 -255.5t282.5 -100.5q92 0 175 35.5t143.5 96t96 144t35.5 174.5t-35.5 174.5t-96 144t-143.5 96t-175 35.5z" />
    <glyph glyph-name="btn64" unicode="&#xe66d;" 
d="M728 460h-428q-8 0 -14 5.5t-6 13.5t6 13.5t14 5.5h428q8 0 13.5 -5.5t5.5 -13.5t-5.5 -13.5t-13.5 -5.5zM603 312h-303q-8 0 -14 6.5t-6 14.5t6 14.5t14 6.5h303q8 0 14 -6.5t6 -14.5t-6 -14.5t-14 -6.5zM658 165h-358q-8 0 -14 6.5t-6 14.5t6 14.5t14 6.5h358
q7 0 13 -6.5t6 -14.5t-6 -14.5t-13 -6.5zM634 612h-244q-31 0 -52.5 20.5t-21.5 51.5q0 25 15.5 44t40.5 25q6 23 26 38t46 15h136q26 0 46 -15t26 -38q24 -6 40 -25t16 -45q0 -30 -21.5 -50.5t-52.5 -20.5zM444 768q-15 0 -25 -9.5t-10 -23.5q0 -7 -5.5 -13t-13.5 -6
q-15 0 -25 -8.5t-10 -22.5t10 -22.5t25 -8.5h244q15 0 25 8.5t10 22.5t-10 23t-25 9q-8 0 -13.5 5.5t-5.5 13.5q0 14 -10 23t-25 9h-136zM784 -37h-544q-40 0 -68.5 28.5t-28.5 68.5v544q0 40 28.5 68.5t68.5 28.5h95q8 0 14 -5.5t6 -13.5t-6 -14t-14 -6h-95q-24 0 -41 -17
t-17 -41v-544q0 -24 17 -41t41 -17h544q24 0 41 17t17 41v544q0 24 -17 41t-41 17h-95q-8 0 -14 6t-6 14t6 13.5t14 5.5h95q40 0 68.5 -28.5t28.5 -68.5v-544q0 -40 -28.5 -68.5t-68.5 -28.5z" />
    <glyph glyph-name="menu06" unicode="&#xe651;" 
d="M408 284l185 37l335 334l-149 149l-334 -335zM779 729l74 -74l-297 -297l-111 -37l37 111zM779 69q0 -22 -15.5 -37t-36.5 -15h-525q-22 0 -37.5 15t-15.5 37v525q0 22 15.5 37.5t37.5 15.5h315v52h-368q-22 0 -37 -15t-15 -37v-630q0 -22 15 -37.5t37 -15.5h630
q22 0 37.5 15.5t15.5 37.5v367h-53v-315zM280 437h105q11 0 19 7.5t8 18.5t-8 18.5t-19 7.5h-105q-11 0 -18.5 -7.5t-7.5 -18.5t7.5 -18.5t18.5 -7.5zM280 227h105q11 0 19 7.5t8 18.5t-8 18.5t-19 7.5h-105q-11 0 -18.5 -7.5t-7.5 -18.5t7.5 -18.5t18.5 -7.5z" />
    <glyph glyph-name="sbtn05" unicode="&#xe600;" 
d="M804 112h-606q-9 0 -15.5 6.5t-6.5 15.5v173q0 9 6.5 15t15.5 6t15 -6t6 -15v-152h563v152q0 9 6.5 15t15.5 6t15 -6t6 -15v-173q0 -9 -6 -15.5t-15 -6.5zM615 486l-93 108v-331q0 -8 -6 -14.5t-15 -6.5t-15.5 6.5t-6.5 14.5v331l-93 -108q-6 -6 -15 -6t-15.5 6.5
t-6.5 15.5t7 15l129 151q7 7 16 6h1q8 0 13 -5q1 0 1 -0.5v-0.5l130 -151q6 -6 6 -15t-6 -15.5t-15.5 -6.5t-15.5 6z" />
    <glyph glyph-name="btn06" unicode="&#xe64f;" 
d="M900 803h-204q-13 0 -22 -9t-9 -22t9 -22.5t22 -9.5h128l-317 -317q-9 -9 -9 -22t9 -22t22 -9t22 9l318 317v-128q0 -13 9 -22t22 -9t22 9t9 22v204q0 13 -9 22t-22 9zM900 433q-13 0 -22.5 -9t-9.5 -22v-228q0 -61 -43 -103.5t-103 -42.5h-420q-61 0 -104 42.5
t-43 103.5v420q0 61 43 103.5t104 42.5h224q13 0 22 9.5t9 22.5t-9 22t-22 9h-224q-87 0 -148 -61t-61 -148v-420q0 -87 61 -148t148 -61h420q86 0 147.5 61t61.5 148v228q0 13 -9 22t-22 9z" />
    <glyph glyph-name="btn09" unicode="&#xe650;" 
d="M543 588q0 13 -9 22t-22 9t-22 -9t-9 -22v-204q0 -13 9 -22t22 -9h204q13 0 22 9t9 22t-9 22t-22 9h-128l317 317q9 9 9 22t-9.5 22.5t-22.5 9.5t-22 -9l-317 -317v128zM899 497q-13 0 -22 -9t-9 -22v-292q0 -60 -43 -103t-103 -43h-420q-60 0 -103 43t-43 103v420
q0 60 43 103t103 43h288q13 0 22.5 9t9.5 22t-9.5 22.5t-22.5 9.5h-288q-86 0 -147.5 -61.5t-61.5 -147.5v-420q0 -86 61.5 -147.5t147.5 -61.5h420q86 0 147.5 61.5t61.5 147.5v292q0 13 -9.5 22t-22.5 9z" />
    <glyph glyph-name="btn31" unicode="&#xe71d;" 
d="M651 571q8 12 0 25q-8 14 -37 14h-3h-330q-20 0 -30.5 -8t-10.5 -19q0 -14 15 -22q18 -9 26 -9h333q26 0 37 19zM240 465q0 -15 15 -22q12 -6 26 -6h256l4 6q17 18 24 24l33 27h-317q-20 0 -30.5 -8.5t-10.5 -20.5zM794 490q18 -9 25 -13l23 -15v259q0 31 -21.5 46.5
t-45.5 15.5v0h-606q-26 0 -51.5 -15.5t-25.5 -46.5v-684q0 -31 26 -46.5t51 -15.5v0h606q32 0 49.5 19.5t17.5 42.5v61l-34 31l-24 -11v-81q0 -3 -2 -5q-1 -1 -3 0q-3 1 -4 1h-606l-3.5 -1t-7 -1t-6 1.5t-2.5 4.5v684q0 4 19 4h606q1 0 4 1t4 0t1 -5v-227zM925 135l-103 100
q25 39 25 84q0 67 -48.5 113.5t-116.5 46.5t-116.5 -46.5t-48.5 -113t48.5 -113t116.5 -46.5q59 0 104 35l100 -97q10 -10 19 0l20 19q9 9 0 18v0zM563 319q0 48 35 81.5t84.5 33.5t84.5 -33.5t35 -82t-35 -82t-84.5 -33.5t-84.5 34t-35 82v0zM792 105z" />
    <glyph glyph-name="btn04" unicode="&#xe663;" 
d="M835.5 666.5q-56.5 56.5 -129.5 86.5t-153 30q-126 0 -229 -72t-146 -190l-41 72q-7 13 -21 16.5t-26.5 -3.5t-16.5 -21t3 -27l86 -148q10 -18 30 -18q9 0 17 5l149 85q12 7 16 21t-3.5 26.5t-21 16.5t-26.5 -3l-79 -46q35 97 120 156.5t189 59.5q89 0 165 -44t120 -120
t44 -165t-44 -165t-120 -120t-165 -44q-106 0 -191.5 61.5t-120.5 161.5q-4 13 -17 19.5t-26.5 2t-20 -17.5t-2.5 -27q42 -121 146 -195.5t232 -74.5q80 0 153 30t129.5 86.5t86.5 129.5t30 153t-30 153t-86.5 129.5z" />
    <glyph glyph-name="adoubt" unicode="&#xe62b;" 
d="M511.5 -96q-97.5 0 -186 38t-153 102.5t-102.5 153t-38 186t38 186.5t102.5 153.5t153.5 102.5t186 38t186 -38t153.5 -102.5t102.5 -153.5t38 -186.5t-38 -186t-102.5 -153t-153.5 -102.5t-186.5 -38zM512 818q-88 0 -168.5 -34.5t-138.5 -92.5t-92.5 -138.5
t-34.5 -168.5t34.5 -168.5t92.5 -138.5t138.5 -92.5t168.5 -34.5t168.5 34.5t138.5 92.5t92.5 138.5t34.5 168.5t-34.5 168.5t-92.5 138.5t-138.5 92.5t-168.5 34.5zM483 238q-1 12 -1 18q0 34 10 59q7 18 23 37q12 14 42 40.5t39 42.5t9 34q0 34 -26.5 59.5t-64.5 25.5
q-37 0 -62 -23t-33 -72l-60 7q8 66 48 101t106 35q69 0 110.5 -37.5t41.5 -91.5q0 -31 -14.5 -57t-57.5 -63q-28 -26 -37 -37q-9 -12 -13 -27.5t-5 -50.5h-55v0zM479 122v66h66v-66h-66z" />
    <glyph glyph-name="btn55" unicode="&#xe668;" 
d="M854 508q-14 0 -22.5 8.5t-8.5 22.5v118l-323 -329q-22 -11 -44 0q-9 9 -9 21.5t9 22.5l323 323h-112q-14 0 -22.5 8.5t-8.5 22.5t8.5 22.5t22.5 8.5h187q18 0 24.5 -6.5t6.5 -24.5v-187q0 -14 -8.5 -22.5t-22.5 -8.5zM419 695h-156q-28 0 -45 -17t-17 -45v-498
q0 -28 17 -45t45 -17h498q28 0 45 17t17 45v156q0 14 8.5 22.5t22.5 8.5t22.5 -8.5t8.5 -22.5v-156q0 -51 -36.5 -87.5t-87.5 -36.5h-498q-51 0 -87.5 36.5t-36.5 87.5v498q0 51 36.5 87.5t87.5 36.5h156q14 0 22.5 -8.5t8.5 -22.5t-8.5 -22.5t-22.5 -8.5z" />
    <glyph glyph-name="btn01" unicode="&#xe6a6;" horiz-adv-x="1025" 
d="M482 160v0v0h-2l-81 3h-92v0v0q-10 0 -17 -7t-7 -17q0 -19 18 -24v0h2h2h2h90l85 -2h3v0q9 1 15 7.5t6 15.5q0 11 -7 17.5t-17 6.5zM482 300v0h-2h-1h-80h-92v0v0q-10 0 -17 -7t-7 -17q0 -19 18 -23v0q1 0 2 -1h2h2h175v0q10 0 17 7t7 17t-7 17t-17 7zM306 437h-1
q-10 0 -17 -7t-7 -17t7 -17t17 -7h414q3 0 5 1v0q8 1 14 8t6 16q0 10 -7 16.5t-17 6.5h-1h-1h-412v0zM958 -23l-74 74q33 46 32 102q-2 66 -49 113.5t-113 49.5q-73 2 -124 -49t-48 -124q2 -66 49.5 -113t113.5 -49q57 -1 102 32l74 -74q3 -4 9 -4t9 4l19 19q10 9 0 19v0v0z
M629 148q0 52 38 87.5t90 31.5q44 -3 75.5 -34.5t34.5 -75.5q4 -52 -31.5 -90t-87.5 -38q-49 0 -84 35t-35 84v0zM570 -18h-377v803h412v-183q0 -17 11 -30.5t27 -17.5l10 -1h182v-185h48v211q1 14 -11 26l-1 2l-135 131l-41 39.5t-44.5 43l-5.5 5.5q-1 0 -5 3q-8 4 -14 4
h-2h-294h-137q-17 0 -30.5 -11t-16.5 -27q-1 -3 -1 -10v-802q0 -18 11 -31t28 -17h9h377v47zM653 750l156 -148h-156v148z" />
    <glyph glyph-name="btn50" unicode="&#xe995;" 
d="M959 384l-364 365v-232q-7 1 -19 1.5t-48 -1.5t-71 -7.5t-83 -20t-89 -37t-83 -61t-71.5 -88t-48 -123t-18.5 -161.5q0 166 245 216q137 28 286 17v-233zM130 202q27 65 70.5 115t88.5 78t99 45.5t95 23.5t83 6.5t56.5 -1t21.5 -2.5v0v166l249 -249l-249 -248v165
q-16 2 -44.5 3t-104.5 -1t-140 -10t-129.5 -31.5t-95.5 -59.5z" />
    <glyph glyph-name="menu26" unicode="&#xe67d;" 
d="M909 145h-784q-20 0 -34.5 14.5t-14.5 34.5v547q0 20 14.5 34.5t34.5 14.5h784q21 0 35 -14.5t14 -34.5v-547q0 -20 -14 -34.5t-35 -14.5v0zM898 720q0 10 -9 10h-747q-10 0 -10 -10v-511q0 -9 10 -9h747q9 0 9 9v511zM703 556h105v-300h-105v300zM537 649h105v-393h-105
v393zM372 463h105v-207h-105v207zM227 371h104v-115h-104v115zM378 106q0 10 10 10h256q10 0 10 -10v-83h169v-58h-615v58h170v83zM378 106z" />
    <glyph glyph-name="scedit" unicode="&#xe6cd;" 
d="M127 781v-794h695v223h-49v-173h-596v694h596v-124h49v174h-695zM326 607v-49h298v49h-298zM276 210v-49h248v49h-248zM276 409v-50h397v50h-397zM845 508l-246 -246l52 -52l246 246zM560 246l2 -73l72 -2z" />
    <glyph glyph-name="btn40" unicode="&#xe64d;" 
d="M535 135l89 236h-49q-59 -164 -63 -179q-3 9 -18.5 54t-29.5 85.5t-14 39.5h-50l90 -236h45zM865 666h-79v79q0 14 -10.5 23.5t-24.5 9.5h-477q-15 0 -25 -9.5t-10 -23.5v-79h-82q-17 0 -26.5 -7t-11.5 -12.5t-2 -10.5v-610q0 -15 11.5 -25.5t28.5 -10.5h708
q17 0 28.5 10.5t11.5 25.5v610q0 5 -2 10.5t-11.5 12.5t-26.5 7zM293 724h439v-139h-439v139zM849 46h-676v401h676v-401zM849 503h-676v108h66v-26q-13 0 -23 -7.5t-10 -20.5q0 -12 8 -20t20 -8h554q12 0 20 8t8 19.5t-9.5 20t-20.5 8.5v26h63v-108z" />
    <glyph glyph-name="btn18" unicode="&#xe60b;" 
d="M885 194h-48v155q0 28 -19.5 47.5t-47.5 19.5h-238v160h49q18 0 31 13t13 32v137q0 19 -13 32t-31 13h-138q-18 0 -31 -13t-13 -32v-137q0 -19 13 -32t31 -13h45v-160h-234q-28 0 -47.5 -19.5t-19.5 -47.5v-155h-48q-18 0 -31 -13t-13 -32v-138q0 -18 13 -31t31 -13h138
q18 0 31 13t13 31v138q0 19 -13 32t-31 13h-46v155q0 9 6.5 15.5t16.5 6.5h234v-177h-45q-18 0 -31 -13t-13 -32v-137q0 -19 13 -32t31 -13h138q18 0 31 13t13 32v137q0 19 -13 32t-31 13h-48v177h237q10 0 16.5 -6.5t6.5 -15.5v-155h-46q-18 0 -31 -13t-13 -32v-138
q0 -18 13 -31t31 -13h138q18 0 31 13t13 31v138q0 19 -13 32t-31 13v0zM443 758h138v-137h-138v137zM277 11h-138v138h138v-138zM581 11h-138v138h138v-138v0zM885 11h-138v138h138v-138zM885 11z" />
    <glyph glyph-name="ainfo" unicode="&#xe637;" 
d="M602 254q-7 2 -16.5 -9t-17.5 -25t-19.5 -23.5t-23.5 -5.5q-4 1 -5 3q6 65 38.5 177t40.5 152h-5q-23 -8 -80 -13t-80 -14v-14q10 0 17.5 -1t13 -2.5t9 -6t6 -7t2.5 -9t0.5 -9.5t-1.5 -12.5t-3 -12.5t-4 -14t-4 -14q-5 -20 -18.5 -60.5t-22.5 -72.5t-11 -56
q-4 -38 14.5 -56.5t45.5 -18.5q50 1 105 72l3.5 4t6.5 8t6.5 9.5t6 10t3.5 9t-0.5 7.5t-6.5 4zM576 693q-23 0 -39.5 -16.5t-16.5 -39.5t16.5 -39.5t39.5 -16.5t39.5 16.5t16.5 39.5t-16.5 39.5t-39.5 16.5zM524.5 853q-92.5 0 -176.5 -36t-145 -97t-97 -145t-36 -176.5
t36 -177t97 -145.5t145 -97t176.5 -36t177 36t145.5 97t97 145.5t36 177t-36 176.5t-97 145t-145.5 97t-177 36zM525 -15q-112 0 -207 55.5t-150.5 150.5t-55.5 207t55.5 207t150.5 150.5t207 55.5t207 -55.5t150.5 -150.5t55.5 -207t-55.5 -207t-150.5 -150.5t-207 -55.5z
" />
    <glyph glyph-name="btn43" unicode="&#xe659;" 
d="M144 95v5q0 18 14 31t34 13h609q19 0 33 -13t14 -31v-5q0 -18 -14 -31t-33 -13h-609q-20 0 -34 13t-14 31zM172 277v0q-12 16 -8.5 35t19.5 30l606 428q15 11 34 7.5t30 -18.5v0q11 -16 8 -35t-19 -30l-606 -428q-15 -11 -34 -7.5t-30 18.5z" />
    <glyph glyph-name="btn19" unicode="&#xe67f;" 
d="M988 -17l-306 307q88 105 88 238q0 74 -28 142t-81 121q-50 50 -118.5 77.5t-144 27.5t-144.5 -27.5t-119 -77.5q-71 -72 -96.5 -167.5t0 -191.5t96.5 -167q53 -53 121 -81t142 -28q133 0 238 88l306 -306q10 -10 23.5 -10t23 9.5t9.5 23t-10 22.5zM398 223
q-62 0 -118.5 23t-98.5 64q-90 90 -90 217.5t90 217.5t217.5 90t217.5 -90t90 -217.5t-90 -217.5q-42 -41 -99 -64t-119 -23zM448 -64h-99q-13 0 -22.5 -9.5t-9.5 -22.5t9.5 -22.5t22.5 -9.5h99q13 0 22.5 9.5t9.5 22.5t-9.5 22.5t-22.5 9.5zM588 52h-379q-13 0 -22.5 -9.5
t-9.5 -23t9.5 -22.5t22.5 -9h379q13 0 22.5 9t9.5 22.5t-9.5 23t-22.5 9.5zM398.5 393q-16.5 0 -28.5 -11.5t-12 -27.5q0 -19 12 -29.5t29 -10.5q16 0 27.5 10.5t11.5 29.5q0 16 -11.5 27.5t-28 11.5zM369 489q3 -25 8 -37q6 -12 20 -12t20 12.5t8 35.5l12 131q1 18 1 35
q0 30 -7.5 45.5t-30.5 15.5q-19 0 -30.5 -12t-11.5 -34q0 -17 3 -54z" />
    <glyph glyph-name="xuanze" unicode="&#xe66e;" 
d="M337 414l132 -132l215 213q11 12 27.5 12t28.5 -12t11.5 -28t-12.5 -28l-234 -234q-4 -7 -6 -9q-12 -13 -30 -11q-17 0 -29 12q-2 1 -6 8l-154 153q-11 11 -11 27.5t11.5 28.5t28 12t28.5 -12zM510 -54q-138 0 -252 80q-13 4 -21.5 14.5t-8.5 24.5v3q0 17 11.5 28.5
t28.5 11.5t29 -13q95 -69 212 -69q98 0 181.5 48t132 131.5t48.5 181.5t-48.5 181t-132 131t-181.5 48t-181 -48t-131.5 -131t-48.5 -181q0 -80 35 -154v0q15 -16 18.5 -25.5t2.5 -22.5v0q-1 -12 -14 -25.5t-28 -13.5q-14 0 -24.5 8t-14.5 21q-54 98 -54 211q0 89 35 170.5
t94 140.5t140.5 94t171.5 35t171.5 -35t140.5 -94t94 -140.5t35 -171t-35 -171t-94 -140t-140.5 -93.5t-171.5 -35z" />
    <glyph glyph-name="menu02" unicode="&#xe604;" 
d="M316 535h196v-56h-196v56zM316 366h280v-56h-280v56zM316 198h280v-56h-280v56zM680 701h-449q-23 0 -39.5 -16.5t-16.5 -39.5v-617q0 -24 16.5 -40t39.5 -16h449q24 0 40.5 16t16.5 40v617q0 23 -16.5 39.5t-40.5 16.5zM680 28v0h-449v0v617v0h449v0v-617zM793 815h-393
v-56h393v-561h56v561q0 18 -7 30.5t-18 17.5t-18 6.5t-13 1.5z" />
    <glyph glyph-name="menu20" unicode="&#xe605;" horiz-adv-x="1136" 
d="M402 22h-122q-38 0 -65 29.5t-27 71.5v522q0 42 27 71.5t65 29.5h551q38 0 65 -29.5t27 -71.5v-50q0 -13 9 -21.5t21.5 -8.5t21.5 8.5t9 21.5v50q0 67 -44.5 114t-108.5 47h-551q-64 0 -109 -47t-45 -114v-522q0 -67 45 -114t109 -47h122q13 0 22 9t9 21.5t-9 21t-22 8.5
v0zM280 565q-13 0 -22 -9t-9 -21.5t9 -21t22 -8.5h245q12 0 21 8.5t9 21t-9 21.5t-21 9h-245zM494 353.5q0 12.5 -9 21.5t-22 9h-183q-13 0 -22 -9t-9 -21.5t9 -21t22 -8.5h183q13 0 22 8.5t9 21zM862 298q35 25 55.5 63.5t20.5 82.5q0 75 -53.5 128t-129.5 53t-130 -53
t-54 -128q0 -44 20.5 -82.5t55.5 -63.5q-72 -36 -120 -106.5t-48 -138.5q0 -13 9 -22t21.5 -9t21.5 9t9 22q0 42 28 90.5t79.5 84t107.5 35.5t107 -35.5t79 -84t28 -90.5q0 -13 9 -22t21.5 -9t21.5 9t9 22q0 68 -47.5 138.5t-120.5 106.5zM754.5 324q-50.5 0 -86.5 35
t-36 85t36 85.5t86.5 35.5t86.5 -35.5t36 -85.5t-36 -85t-86.5 -35z" />
    <glyph glyph-name="menu22" unicode="&#xe606;" 
d="M181 -27h-61v542l393 280l391 -277v-545h-61v514l-330 233l-332 -236v-511v0zM754 697h61v-145h-61v145zM541 -27h-58v347h58v-347zM553 322l-42 -42l-166 166l42 42zM637 488l42 -42l-166 -166l-42 42zM706 190v-65h-388v65h388zM706 320v-66h-388v66h388zM706 320z" />
    <glyph glyph-name="aerror" unicode="&#xe664;" 
d="M512 828q90 0 173 -35q79 -34 140.5 -95.5t95.5 -140.5q35 -83 35 -173t-35 -173q-34 -79 -95.5 -140.5t-140.5 -95.5q-83 -35 -173 -35t-173 35q-79 34 -140.5 95.5t-95.5 140.5q-35 83 -35 173t35 173q34 79 95.5 140.5t140.5 95.5q83 35 173 35zM512 875
q-100 0 -191 -39t-156.5 -104.5t-104.5 -156.5t-39 -191t39 -191t104.5 -156.5t156.5 -104.5t191 -39t191 39t156.5 104.5t104.5 156.5t39 191t-39 191t-104.5 156.5t-156.5 104.5t-191 39v0zM704 194l-2 -2q-8 -8 -18.5 -8t-18.5 8l-345 345q-8 8 -8 18.5t8 18.5l2 2
q8 8 18.5 8t18.5 -8l345 -345q8 -8 8 -18.5t-8 -18.5zM322 192l-2 2q-8 8 -8 18.5t8 18.5l345 345q8 8 18.5 8t18.5 -8l2 -2q8 -8 8 -18.5t-8 -18.5l-345 -345q-8 -8 -18.5 -8t-18.5 8z" />
    <glyph glyph-name="sbtn08" unicode="&#xe64e;" 
d="M610 82q-35 0 -59.5 24.5t-24.5 59.5v120q0 35 24.5 59.5t59.5 24.5h120q35 0 59.5 -24.5t24.5 -59.5v-120q0 -35 -24.5 -59.5t-59.5 -24.5h-120zM610 326q-17 0 -28.5 -11.5t-11.5 -28.5v-120q0 -17 11.5 -28.5t28.5 -11.5h120q16 0 28 11.5t12 28.5v120q0 17 -12 28.5
t-28 11.5h-120zM294 82q-35 0 -59.5 24.5t-24.5 59.5v120q0 35 24.5 59.5t59.5 24.5h120q35 0 59.5 -24.5t24.5 -59.5v-120q0 -35 -24.5 -59.5t-59.5 -24.5h-120zM294 326q-16 0 -28 -11.5t-12 -28.5v-120q0 -17 12 -28.5t28 -11.5h120q17 0 28.5 11.5t11.5 28.5v120
q0 17 -11.5 28.5t-28.5 11.5h-120zM610 398q-35 0 -59.5 24.5t-24.5 58.5v121q0 34 24.5 58.5t59.5 24.5h120q35 0 59.5 -24.5t24.5 -58.5v-121q0 -34 -24.5 -58.5t-59.5 -24.5h-120zM610 642q-17 0 -28.5 -12t-11.5 -28v-121q0 -16 11.5 -27.5t28.5 -11.5h120q16 0 28 11.5
t12 27.5v121q0 16 -12 28t-28 12h-120zM294 398q-35 0 -59.5 24.5t-24.5 58.5v121q0 34 24.5 58.5t59.5 24.5h120q35 0 59.5 -24.5t24.5 -58.5v-121q0 -34 -24.5 -58.5t-59.5 -24.5h-120v0zM294 642q-16 0 -28 -12t-12 -28v-121q0 -16 12 -27.5t28 -11.5h120q17 0 28.5 11.5
t11.5 27.5v121q0 16 -11.5 28t-28.5 12h-120z" />
    <glyph glyph-name="btn59" unicode="&#xe66a;" 
d="M638 -66h-374q-48 0 -82.5 34t-34.5 83v666q0 49 34.5 83t82.5 34h496q48 0 82 -34t34 -83v-549q0 -9 -6.5 -15.5t-15.5 -6.5t-15 6t-6 16v549q0 31 -22 52.5t-52 21.5h-495q-30 0 -51.5 -21.5t-21.5 -52.5v-666q0 -31 21.5 -52.5t51.5 -21.5h374q9 0 15.5 -6.5
t6.5 -15.5t-6.5 -15t-15.5 -6zM678 488h-333q-8 0 -14.5 6.5t-6.5 15.5t6.5 15.5t14.5 6.5h333q9 0 15.5 -6.5t6.5 -15.5t-6.5 -15.5t-15.5 -6.5zM655 362h-286q-9 0 -15 5.5t-6 14t6 14.5t15 6h286q9 0 15.5 -6t6.5 -14.5t-6.5 -14t-15.5 -5.5zM509.5 191q-8.5 0 -14 6
t-5.5 16v285q0 9 5.5 15.5t14 6.5t14.5 -6.5t6 -15.5v-285q0 -9 -6 -15.5t-14.5 -6.5zM638 -66q-5 0 -8 2q-13 5 -13 20v116q0 48 34 82.5t82 34.5h122q14 0 20 -14q5 -13 -5 -23l-217 -212q-6 -6 -15 -6zM733 146q-30 0 -51.5 -21.5t-21.5 -52.5v-66l142 140h-69zM512 491
q-8 0 -15 6l-129 129q-6 7 -6 15.5t6 14.5q7 7 16 7t15 -7l113 -113l113 113q7 7 15.5 7t15.5 -7q6 -6 6 -15t-6 -15l-129 -129q-6 -6 -15 -6z" />
    <glyph glyph-name="awarn" unicode="&#xe655;" 
d="M952 570q-36 86 -102 152t-152 102q-89 38 -186 38t-186 -38q-86 -36 -152 -102t-102 -152q-38 -89 -38 -186t38 -186q36 -86 102 -152t152 -102q89 -38 186 -38t186 38q86 36 152 102t102 152q38 89 38 186t-38 186zM512 -44q-116 0 -214.5 57.5t-156 156t-57.5 214.5
t57.5 214.5t156 156t214.5 57.5t214.5 -57.5t156 -156t57.5 -214.5t-57.5 -214.5t-156 -156t-214.5 -57.5zM512 260q10 0 17.5 7t7.5 18v299q0 10 -7.5 17.5t-17.5 7.5t-17.5 -7.5t-7.5 -17.5v-300q0 -10 7.5 -17t17.5 -7zM478 184q0 -14 10 -24t24 -10t24 10t10 24v0
q0 14 -10 24t-24 10t-24 -10t-10 -24z" />
    <glyph glyph-name="sbtn01" unicode="&#xe62a;" 
d="M802.5 585q-7.5 7 -18 7t-17.5 -8l-329 -351l-180 178q-8 7 -18 7t-17 -7.5t-7 -17.5t7 -17l198 -196v0h1q1 -1 5 -3q0 -1 1 -1.5l1 -0.5q5 -2 9 -2q5 0 10 2q1 0 1.5 1t1.5 1q4 3 5 4v0v0l347 369q7 8 7 18t-7.5 17z" />
    <glyph glyph-name="btn41" unicode="&#xe653;" 
d="M927 406v-67h-816v67h816zM807 659v-66h-694v66h694zM506 162v-67h-394v67h394z" />
    <glyph glyph-name="btn23" unicode="&#xe652;" 
d="M740 361q0 38 -27 64.5t-64 26.5h-274q-37 0 -64 -26.5t-27 -64.5v-136q0 -38 27 -64.5t64 -26.5h274q37 0 64 26.5t27 64.5v136zM694 225q0 -21 -12.5 -33.5t-32.5 -12.5h-274q-20 0 -32.5 12.5t-12.5 33.5v136q0 21 12.5 33.5t32.5 12.5h274q20 0 32.5 -12.5
t12.5 -33.5v-136zM876 589q-10 0 -16.5 6t-6.5 17v136q0 10 6.5 16.5t16.5 6.5t16.5 -6.5t6.5 -16.5v-136q0 -11 -6.5 -17t-16.5 -6zM876 589h-136q-11 0 -17 6t-6 16.5t6 16.5t17 6h136q10 0 16.5 -6t6.5 -16.5t-6.5 -16.5t-16.5 -6zM512 -71q-92 0 -176.5 36t-145.5 97
t-97 145.5t-36 176.5t36 176.5t97 145.5t145.5 97t176.5 36q110 0 207 -49t162 -137q13 -14 -5 -32q-14 -14 -32 4q-58 79 -146 124t-186 45q-112 0 -206.5 -54.5t-149 -149t-54.5 -206.5t54.5 -206.5t149 -149t206.5 -54.5t206.5 54.5t149 149t54.5 206.5q0 10 6 16.5
t16.5 6.5t16.5 -6.5t6 -16.5q0 -92 -36 -176.5t-97 -145.5t-145.5 -97t-176.5 -36zM398 430q-10 0 -16.5 6t-6.5 16v91q0 58 41 97.5t96 39.5q57 0 97 -40.5t40 -96.5q0 -10 -6.5 -16t-16.5 -6t-16.5 6t-6.5 16q0 38 -26.5 64.5t-64.5 26.5t-64.5 -26.5t-26.5 -64.5v-91
q0 -10 -6.5 -16t-16.5 -6z" />
    <glyph glyph-name="btn46" unicode="&#xe65c;" 
d="M767 -38h-527q-57 0 -89.5 35t-32.5 94v715h659v-91h129v-612q0 -58 -40.5 -99.5t-98.5 -41.5zM723 733q0 7 -5.5 12.5t-13.5 5.5h-513q-7 0 -12.5 -5.5t-5.5 -12.5v-661q0 -8 23.5 -31.5t31.5 -23.5h476q8 0 13.5 5.5t5.5 12.5v698zM853 660h-76v-589q0 -18 12.5 -27.5
t22.5 -9.5q18 0 29 19.5t11 44.5l1 1l-1 557zM283 256h330v-55h-330v55zM283 421h330v-55h-330v55zM283 586h330v-55h-330v55z" />
    <glyph glyph-name="btn33" unicode="&#xe648;" 
d="M876 -64h-716v25v796q0 39 14.5 53t52.5 14q341 0 414 1q23 0 38 -15q27 -29 89 -91.5t95 -96.5q13 -14 14 -31v-636q0 -1 -1 -19zM213 771v-782h612v598h-114q-28 1 -45.5 18t-18.5 46q-1 64 0 94q1 16 -4.5 21.5t-21.5 5.5q-64 -1 -385 -1h-23zM553 231v-78
q1 -32 -26 -32q-26 0 -27 32v78h-78q-30 0 -31 25q-1 27 31 28h77v57h-60q-20 0 -27 1q-23 5 -21 27.5t25 23.5h62q-67 68 -69 70l-17 17q-23 23 -5 42q19 19 41 -4q76 -75 80 -79q1 -1 16 -23q66 67 88 88q15 16 18 18q19 17 36 1q19 -18 1 -38q-25 -26 -69 -69
q-1 -1 -20 -14q3 -6 5 -9h50q30 1 31 -25q0 -26 -30 -27h-80v-57h72q19 -1 23 -5q16 -16 13 -27q-2 -6 -10 -12.5t-15 -7.5q-10 -1 -84 -1z" />
    <glyph glyph-name="btn16" unicode="&#xe676;" 
d="M902 789l-1 -11v-466v-12q-11 4 -46 16v421h-698v-692h10h298q8 0 14 -6q5 -5 41 -36l-6 -1h-399l-7 1v786h794zM699 -14q-48 11 -50 12q-100 32 -163 128l41 41q70 62 145 82q110 30 206 -45q35 -28 70 -73l4 -4v-3l-2 -2q-50 -101 -166 -127q-2 -1 -50 -9h-35v0z
M803.5 122.5q-0.5 34.5 -25 59t-59.5 24.5t-60 -25t-25 -59q0 -35 25 -59.5t61 -24.5q34 0 59 25t24.5 59.5zM724 543h-373v66h373v-66zM724 487v-65h-373v65h373zM724 366v-66h-373v66h373zM224 302v62h64v-62h-64zM224 609h64v-58q0 -4 -5 -5h-59v63zM288 485v-62h-63v62
h63z" />
    <glyph glyph-name="btn32" unicode="&#xe646;" 
d="M701 768h-92l-31 -57q-44 -82 -54 -110h-1q-19 43 -85 167h-98l107 -185h-119v-73h147v-101h-147v-75h147v-166h92v166h140v75h-140v101h140v73h-115zM864 662h-135v-50h135q24 0 41 -17t17 -41v-454q0 -24 -17 -41t-41 -17h-703q-24 0 -41 17t-17 41v454q0 24 17 41
t41 17h136v50h-136q-45 0 -76.5 -31.5t-31.5 -76.5v-454q0 -45 31.5 -76.5t76.5 -31.5h703q45 0 77 31.5t32 76.5v454q0 45 -32 76.5t-77 31.5z" />
    <glyph glyph-name="btn00" unicode="&#xe639;" 
d="M390 2q0 13 9 22l363 360l-363 362q-9 9 -9 21.5t9 21.5t21.5 9t21.5 -9l386 -383q9 -9 9 -22v0q0 -12 -9 -21l-386 -383q-9 -9 -21.5 -9t-21.5 9t-9 22v0zM420.5 430q-18.5 0 -31.5 -13.5t-13 -32t13 -31.5t31.5 -13t32 13t13.5 31.5t-13.5 32t-32 13.5zM230.5 430
q-18.5 0 -32 -13.5t-13.5 -32t13.5 -31.5t32 -13t31.5 13t13 31.5t-13 32t-31.5 13.5z" />
    <glyph glyph-name="btn53" unicode="&#xe667;" 
d="M414 320q21 0 36.5 -15t15.5 -37v-172q0 -21 -15.5 -36.5t-36.5 -15.5h-197q-21 0 -36.5 15.5t-15.5 36.5v172q0 22 15.5 37t36.5 15h197zM414 365h-197q-40 0 -68.5 -28.5t-28.5 -68.5v-172q0 -40 28.5 -68.5t68.5 -28.5h197q40 0 68.5 28.5t28.5 68.5v172
q0 40 -28.5 68.5t-68.5 28.5v0zM820 746q21 0 36.5 -15.5t15.5 -36.5v-182q0 -21 -15.5 -36.5t-36.5 -15.5h-165q-21 0 -36.5 15.5t-15.5 36.5v182q0 21 15.5 36.5t36.5 15.5h165zM820 791h-165q-40 0 -68.5 -28.5t-28.5 -68.5v-182q0 -40 28.5 -68.5t68.5 -28.5h165
q40 0 68.5 28.5t28.5 68.5v182q0 40 -28.5 68.5t-68.5 28.5v0zM419 746q21 0 36.5 -15.5t15.5 -36.5v-182q0 -21 -15.5 -36.5t-36.5 -15.5h-197q-21 0 -36.5 15.5t-15.5 36.5v182q0 21 15.5 36.5t36.5 15.5h197zM419 791h-197q-40 0 -68.5 -28.5t-28.5 -68.5v-182
q0 -40 28.5 -68.5t68.5 -28.5h197q40 0 68.5 28.5t28.5 68.5v182q0 40 -28.5 68.5t-68.5 28.5v0zM593 244v0q-9 0 -16 6.5t-7 15.5v41q0 9 7 15.5t16 6.5v0q9 0 15.5 -6.5t6.5 -15.5v-41q0 -9 -6.5 -15.5t-15.5 -6.5zM593 37v0q-9 0 -16 6.5t-7 15.5v118q0 9 7 16t16 7v0
q9 0 15.5 -7t6.5 -16v-118q0 -9 -6.5 -15.5t-15.5 -6.5zM717 167v0q-9 0 -15.5 6.5t-6.5 15.5v118q0 9 6.5 15.5t15.5 6.5v0q9 0 16 -6.5t7 -15.5v-118q0 -9 -7 -15.5t-16 -6.5zM842 218v0q-10 0 -16.5 6.5t-6.5 15.5v67q0 9 6.5 15.5t16.5 6.5v0q9 0 15.5 -6.5t6.5 -15.5
v-67q0 -9 -6.5 -15.5t-15.5 -6.5zM842 37v0q-10 0 -16.5 6.5t-6.5 15.5v94q0 9 6.5 15.5t16.5 6.5v0q9 0 15.5 -6.5t6.5 -15.5v-94q0 -9 -6.5 -15.5t-15.5 -6.5zM717 37v0q-9 0 -15.5 6.5t-6.5 15.5v68q0 9 6.5 15.5t15.5 6.5v0q9 0 16 -6.5t7 -15.5v-68q0 -9 -7 -15.5
t-16 -6.5z" />
    <glyph glyph-name="btn34" unicode="&#xe64a;" 
d="M804 778h-53q-12 0 -22 -6.5t-10 -16.5q0 -11 10.5 -20t21.5 -9h53q23 0 38 -14.5t15 -38.5v-604q0 -23 -15 -38t-38 -15h-570q-25 0 -46 15.5t-21 37.5v604q0 24 15 38.5t38 14.5h67q20 0 20 29q0 23 -20 23h-67q-53 0 -79.5 -29t-26.5 -77v-597q0 -50 29.5 -80.5
t82.5 -30.5h572q54 0 83 28t29 83v597q0 47 -28 76.5t-78 29.5v0zM287 542q0 -11 8 -19t19 -8h397q11 0 19 8t8 18.5t-8 18.5t-19 8h-397q-11 0 -19 -8t-8 -18v0zM710 423h-396q-11 0 -19 -8t-8 -19t8 -19t19 -8h397q11 0 19 8t8 19q0 12 -8.5 19.5t-19.5 7.5v0zM710 266
h-396q-11 0 -19 -8t-8 -19t8 -19t19 -8h397q11 0 19 8t8 19t-8.5 19t-19.5 8v0zM421 712h184q16 0 28 14t12 32.5t-12 32t-29 13.5h-183q-17 0 -29 -13.5t-12 -32t12 -32.5t29 -14v0z" />
    <glyph glyph-name="fuxuankuangxuanzhong" unicode="&#xe645;" horiz-adv-x="1211" 
d="M841 392v-182q0 -68 -48 -116t-116 -48h-476q-68 0 -116 48t-48 116v476q0 68 48 116t116 48h476q36 0 67 -14q8 -4 10 -13q2 -10 -5 -17l-28 -28q-6 -5 -13 -5q-2 0 -5 1q-13 3 -26 3h-476q-37 0 -64 -27t-27 -64v-476q0 -37 27 -64t64 -27h476q38 0 64.5 27t26.5 64
v145q0 8 5 13l37 37q6 5 13 5q4 0 7 -1q11 -5 11 -17zM973 671l-465 -465q-13 -13 -32 -13t-33 13l-246 246q-13 14 -13 32.5t13 32.5l63 63q14 14 33 14t32 -14l151 -150l369 369q14 14 33 14t33 -14l62 -62q14 -14 14 -33t-14 -33z" />
    <glyph glyph-name="radio-a" unicode="&#xe602;" 
d="M373 383.5q0 -57.5 41 -98t98.5 -40.5t98 40.5t40.5 98t-40.5 98.5t-98 41t-98.5 -41t-41 -98.5zM512 720q-91 0 -168.5 -45t-122.5 -122.5t-45 -168.5t45 -168.5t122.5 -122.5t168.5 -45t168.5 45t122.5 122.5t45 168.5t-45 168.5t-122.5 122.5t-168.5 45zM512 94
q-120 0 -205 85t-85 205t85 205t205 85t205 -85t85 -205t-85 -205t-205 -85z" />
    <glyph glyph-name="liebiao" unicode="&#xe661;" 
d="M0 704q0 27 18.5 45.5t45.5 18.5h896q27 0 45.5 -18.5t18.5 -45.5t-18.5 -45.5t-45.5 -18.5h-896q-27 0 -45.5 18.5t-18.5 45.5zM0 384q0 27 18.5 45.5t45.5 18.5h896q27 0 45.5 -18.5t18.5 -45.5t-18.5 -45.5t-45.5 -18.5h-896q-27 0 -45.5 18.5t-18.5 45.5zM0 64
q0 27 18.5 45.5t45.5 18.5h896q27 0 45.5 -18.5t18.5 -45.5t-18.5 -45.5t-45.5 -18.5h-896q-27 0 -45.5 18.5t-18.5 45.5z" />
    <glyph glyph-name="btn03" unicode="&#xe673;" 
d="M784 451l-298 -357l-218 186l37 42l174 -149l262 314zM174 148q0 -64 42 -109.5t100 -45.5h388q59 0 100.5 45.5t41.5 109.5v390q0 56 -33 99t-83 53q4 -28 4 -53h28v-56h-504v56h28q0 25 4 53q-50 -10 -83 -53t-33 -99v-390v0zM902 538v-390q0 -87 -58 -149t-140 -62
h-388q-82 0 -140 62t-58 149v390q0 84 54 144.5t132 65.5q28 85 94 85h224q66 0 95 -85q77 -5 131 -65.5t54 -144.5zM678 637q0 19 -3 41.5t-9 45.5t-17.5 38t-26.5 15h-224q-15 0 -26.5 -15t-17.5 -38t-9 -45.5t-3 -41.5h336z" />
    <glyph glyph-name="btn21" unicode="&#xe501;" horiz-adv-x="1032" 
d="M951 540l-352 244q-29 23 -62 26t-55.5 -6t-38.5 -23l-374 -256q-44 -29 -36 -60q8 -28 52 -31q0 -1 1 -1h88v-387q0 -42 27.5 -71t66.5 -29h258q12 0 20 9q8 8 8 19v230h127q11 0 19 8t8 19t-8 18.5t-19 7.5h-127v59h127q11 0 19 7.5t8 18.5t-8 18.5t-19 7.5h-90l94 101
q7 8 6.5 19t-8 18.5t-18.5 7t-19 -8.5l-118 -127l-115 128q-8 8 -18.5 8.5t-19 -6.5t-9 -18t6.5 -19l92 -103h-90q-11 0 -18.5 -7.5t-7.5 -18.5t7.5 -18.5t18.5 -7.5h127v-59h-127q-11 0 -18.5 -7.5t-7.5 -18.5t7.5 -19t18.5 -8h127v-205h-234q-17 0 -29.5 13.5t-12.5 33.5
v410v1t-1 2l0.5 0.5l0.5 0.5q0 11 -8 18.5t-19 7.5h-93l368 252l2 2q7 6 16.5 11.5t32 6t42.5 -15.5q1 -1 2 -1l352 -244q8 -7 17 -16h-12h-84h-0.5h-0.5v0v0q-11 0 -19 -8t-8 -18v-409q0 -20 -12 -33.5t-30 -13.5h-133q-11 0 -19 -8t-8 -18.5t8 -18.5t19 -8h133q39 0 67 29
t28 71v382h58q61 -1 72 32q12 37 -46 80z" />
    <glyph glyph-name="btn07" unicode="&#xe60c;" 
d="M821 120v106h-56v-106h-112v-52h112v-106h56v106h113v52h-113zM712 263q-45 30 -95 47q67 34 107.5 96t40.5 136q0 109 -82.5 186.5t-199 77.5t-198.5 -77.5t-82 -186.5q0 -74 40.5 -136t107.5 -96q-116 -39 -188.5 -134t-72.5 -214h56q0 65 27 123q25 57 72 101t108 68
q62 24 131 24t131 -24q23 -9 45 -22q23 20 52 31zM571 348q-41 -17 -87 -17t-88 17q-40 16 -71 45t-48 67q-18 39 -18 82t18 82q17 38 48 67q31 30 71 46q42 16 88 16t87 -16t72 -45.5t48 -67.5q18 -39 18 -82t-18 -82q-17 -38 -48 -67t-72 -45z" />
    <glyph glyph-name="menu01" unicode="&#xe8f5;" 
d="M829 714q15 0 26 -11t11 -27v-487q0 -15 -11 -26t-26 -11h-654q-15 0 -25.5 11t-10.5 26v487q0 16 10.5 27t25.5 11h654zM829 766h-654q-35 0 -60.5 -26.5t-25.5 -63.5v-487q0 -37 25.5 -63t60.5 -26h654q36 0 61.5 26t25.5 63v487q0 37 -25.5 63.5t-61.5 26.5zM474 140
v-131h57v131h-57zM357 -27h291q11 0 19.5 8.5t8.5 20.5t-8.5 20t-19.5 8h-291q-12 0 -20 -8t-8 -20t8 -20.5t20 -8.5zM150 236h705q11 0 19.5 8t8.5 20t-8.5 20t-19.5 8h-705q-12 0 -20 -8t-8 -20t8 -20t20 -8z" />
    <glyph glyph-name="search" unicode="&#xe662;" 
d="M704 664q-64 64 -150 86.5t-172 0t-150 -86.5t-86.5 -150t0 -172t86.5 -150q48 -48 110.5 -73t125.5 -25t125.5 25t110.5 73v0q64 64 87 150t0 172t-87 150v0zM160 119.5q-84 83.5 -114 196t0 224.5t114 196t196 114t224.5 0t196 -114t113.5 -196t0 -224.5t-113.5 -196
t-196 -113.5t-224.5 0t-196 113.5zM974.5 -78.5q-17.5 -17.5 -42 -17.5t-42.5 17l-84 85q-17 17 -17 42t17 42t42 17t42 -17l85 -84q17 -18 17 -42.5t-17.5 -42z" />
    <glyph glyph-name="menu19" unicode="&#xe614;" 
d="M953 396q-8 14 -24 19q-8 2 -16 1h-398v374q0 3 -1 8q-2 14 -13 24q-12 10 -29 9q-92 -8 -173.5 -52.5t-140.5 -120.5q-74 -96 -90 -214.5t28.5 -229t141 -185t214.5 -89.5t228.5 30t185.5 142q90 116 94 261q1 13 -7 23zM824 149q-58 -76 -152 -116t-199.5 -30
t-188.5 74q-84 65 -124.5 160.5t-28 198t77.5 187.5q43 55 107 92.5t133 51.5v-387q0 -10 5 -20q1 -3 2.5 -4.5t2.5 -3t3.5 -2t3.5 -1t4.5 -1t4.5 -0.5h5h5h418q-15 -117 -79 -199zM657 740q69 -23 123 -74q55 -53 82 -126q3 -10 10 -18q12 -11 26.5 -13t25.5 9q7 7 9 20.5
t-2 22.5q-31 90 -101 157q-63 61 -146 89q-6 3 -8 3h-0.5h-1.5v0q-21 3 -35 -9q-10 -11 -8.5 -25.5t12.5 -25.5q4 -6 14 -10z" />
    <glyph glyph-name="menu15" unicode="&#xe615;" 
d="M512 756q-90 0 -172 -35t-141 -94t-94 -141t-35 -172t35 -172t94 -141t141 -94t172 -35t172 35t141 94t94 141t35 172t-35 172t-94 141t-141 94t-172 35zM512 -54q-100 0 -185 49.5t-134 134t-49 185t49 185.5t134 134t185 49t185 -49t134 -134t49 -185.5t-49 -185
t-134 -134t-185 -49.5zM349 896h326v-61h-326v61zM482 547h59v-325h-59v325z" />
    <glyph glyph-name="menu09" unicode="&#xe616;" 
d="M758 686h-503v47q0 22 16 37.5t38 15.5h395q22 0 38 -15.5t16 -37.5v-47zM177 529v57q0 22 19 38.5t42 16.5h544q22 0 38 -15.5t16 -37.5v-59h-659zM164 485h696q23 0 38.5 -16t15.5 -38v-396q0 -22 -15.5 -37.5t-38.5 -15.5h-696q-23 0 -38.5 15.5t-15.5 37.5v396
q0 22 15.5 38t38.5 16zM132 614v-85h-7q-25 0 -42.5 -17t-17.5 -41v-475q0 -24 17.5 -41.5t42.5 -17.5h774q25 0 42.5 17.5t17.5 41.5v475q0 24 -17.5 41t-42.5 17h-18v85q0 26 -18 49t-42 23h-19v80q0 25 -17.5 45t-41.5 20h-473q-25 0 -42.5 -17.5t-17.5 -41.5v-86h-22
q-23 0 -39.5 -23t-16.5 -49zM569 232q-19 18 -46 32v89q22 0 28.5 -5t10.5 -10.5t5 -9.5t3 -11.5t3 -10.5h28q0 36 -19 60q-14 18 -59 18v22h-22v-24q-1 -1 -9.5 -1.5t-13.5 -1.5t-14 -3t-14.5 -6.5t-12 -11t-10 -17.5t-3.5 -24q-1 -20 8 -35t18.5 -21t28 -13.5t22.5 -9.5
v-115q-12 0 -24 10q-21 19 -21 49l-27 4q0 -42 24 -68q22 -26 48 -26v-43h22v40q8 0 19 4t24.5 12.5t22.5 27t8 42.5q-1 18 -8 32t-13 19zM454 323q3 30 47 30v-83q-1 0 -7 1.5t-8 2.5t-8 3.5t-8.5 4.5t-6.5 6.5t-6 9t-3 11t0 14.5zM523 123v102q1 0 7.5 -4t10.5 -8t9.5 -10
t9 -15t3.5 -20q2 -39 -40 -45z" />
    <glyph glyph-name="menu08" unicode="&#xe617;" 
d="M198 -25q-40 0 -68.5 26.5t-28.5 65.5v187h-66q-3 0 -3 2v44q0 3 3 3h66v161h-66q-3 0 -3 3v43q0 3 3 3h66v183q0 40 28.5 68.5t68.5 28.5h697q40 0 68.5 -28.5t28.5 -68.5l-1 -581v-48q0 -39 -28.5 -65.5t-68.5 -26.5h-696zM782 49q0 -7 -1 -13l-1 -12h114q20 0 34 12.5
t14 30.5v12v1v1l-1 615q0 20 -13.5 33.5t-32.5 13.5h-113v-694v0zM152 67q0 -19 13 -31t33 -12h536l-1 12v13v694h-535q-19 0 -32.5 -13.5t-13.5 -33.5v-183h65q3 0 3 -3v-43q0 -3 -3 -3h-65v-161h65q3 0 3 -3v-44q0 -2 -3 -2h-65v-187zM590 343h-94v48h94q6 0 11 6.5t5 13
t-5 12.5t-11 6h-66l48 79q1 3 -2.5 10t-8.5 10q-6 3 -14 1.5t-11 -7.5l-57 -93h-4l-57 93q-10 14 -26 6q-6 -3 -9 -9.5t-2 -10.5l48 -79h-70q-7 0 -11.5 -6t-4.5 -12.5t4.5 -13t11.5 -6.5h98v-48h-98q-7 0 -11.5 -6.5t-4.5 -13t4.5 -12.5t11.5 -6h98v-59q0 -6 6 -10.5
t13 -4.5t13.5 4.5t6.5 10.5v59h94q6 0 11 6t5 12.5t-5 13t-11 6.5z" />
    <glyph glyph-name="btn15" unicode="&#xe618;" horiz-adv-x="1093" 
d="M739 788q0 13 -8.5 21.5t-21.5 8.5h-544q-26 0 -44.5 -18.5t-18.5 -44.5v-529q0 -12 9 -21t21.5 -9t21 9t8.5 21v480q0 21 15.5 36.5t37.5 15.5h493q13 1 22 9.5t9 20.5zM919 667h-602q-26 0 -44.5 -18.5t-18.5 -44.5v-603q0 -26 18 -44.5t45 -18.5h602q26 0 44.5 18.5
t18.5 44.5v603q0 27 -18.5 45t-44.5 18zM921 52q0 -21 -15.5 -36.5t-36.5 -15.5h-502q-22 0 -37.5 15.5t-15.5 36.5v502q0 22 15.5 37t37.5 15h502q21 0 36.5 -15t15.5 -37v-251v-251zM635 467h-43v-142h-139v-43h139v-143h43v143h147v43h-147v142z" />
    <glyph glyph-name="btn24" unicode="&#xe65e;" 
d="M512.5 830q-90.5 0 -173 -35.5t-142.5 -95t-95.5 -142t-35.5 -173.5t35.5 -173.5t95.5 -142t142.5 -95t173 -35.5t173 35.5t142 95t95 142t35.5 173.5t-35.5 173.5t-95 142t-142 95t-173 35.5zM512 775q151 0 262 -101l-552 -552q-101 112 -101 262q0 106 52.5 196
t142.5 142.5t196 52.5v0zM512 -7q-141 0 -250 91l550 550q91 -108 91 -250q0 -106 -52.5 -196t-142.5 -142.5t-196 -52.5v0z" />
    <glyph glyph-name="btn17" unicode="&#xe61a;" 
d="M649 253h82q-57 113 -179 169q46 34 72.5 85.5t26.5 110.5q0 102 -71.5 174t-172 72t-172 -72t-71.5 -174q0 -58 25.5 -108.5t70.5 -85.5q-95 -42 -154 -129t-62 -195q0 -40 30 -40q17 0 29 11.5t12 28.5q7 110 90 194.5t191 89.5h22q67 -3 130 -39.5t101 -91.5zM412 432
h-11q-75 2 -127.5 56.5t-52.5 129.5q0 78 54.5 133t131 55t131 -55t54.5 -133q0 -75 -52.5 -129.5t-127.5 -56.5zM664 857zM793 417l-1 3q44 50 68.5 96.5t27.5 101.5q2 47 -19.5 91.5t-55 75t-73 50t-74.5 21.5q-16 -1 -28.5 -12.5t-12.5 -19.5q0 -18 12.5 -31t30.5 -13
q56 -15 102 -61.5t46 -100.5q0 -41 -27 -83.5t-62 -64.5q-32 -13 -32 -48v-5q0 -23 13 -36.5t35 -14.5h2q75 -36 132 -113h86q-56 110 -170 164zM798 40q-39 0 -61 -33l-77 44q8 16 8 33q0 9 -3 21l80 46q22 -24 54 -24q30 0 51 21.5t21 51.5t-21 51t-51 21t-51 -21t-21 -51
q0 -10 3 -21l-81 -46q-22 23 -53 23q-30 0 -51 -21t-21 -51t21 -51t51 -21q25 0 43 15v-1l88 -50q-1 -5 -1 -8q0 -30 21 -51t51 -21t51 21t21 51t-21 51t-51 21z" />
    <glyph glyph-name="btn62" unicode="&#xe66c;" 
d="M831 793h-625q-46 0 -78.5 -32t-32.5 -78v-548q0 -46 32.5 -78t78.5 -32h383v55h-384q-19 0 -37 17.5t-18 37.5v549q0 22 16 38.5t39 16.5h622q23 0 39 -16.5t16 -38.5v-330h55v330q0 46 -30 77.5t-76 31.5zM699 116l-18 -73l67 22l170 171l-45 45zM608 592l-92 -119
l-92 119h-55l129 -165h-129v-36h129v-55h-110v-37h110v-110h36v110h110v37h-110v55h128v36h-128l128 165h-54z" />
    <glyph glyph-name="menu03" unicode="&#xe619;" 
d="M974 575q-14 18 -35 18h-92v39q0 20 -14 33.5t-33 13.5h-433q-3 0 -6 3l-59 58q-13 14 -33 14h-182q-19 0 -33 -14t-14 -33v-646q0 -20 14 -33.5t33 -13.5v0h3h3h714q16 0 28 9t16 24l131 488q6 23 -8 40zM83 209v494q0 8 8 8h171q3 0 5 -2l55 -55q14 -13 32 -13h430
q4 0 8.5 -2.5t4.5 -5.5v-38h-578q-14 0 -25.5 -8.5t-15.5 -22.5zM929 537l-126 -471q-1 -4 -6 -4h-690q-2 0 -4 2q-2 3 -1 5l126 471q1 5 5 5h690q2 0 5 -3q1 -1 1 -5z" />
    <glyph glyph-name="menu04" unicode="&#xe60a;" 
d="M632 12h-402q-39 0 -65.5 25t-26.5 63v566q0 39 27 66t65 27h563q38 0 63 -27t25 -66v-402q0 -16 9 -24.5t18 -8.5q23 0 23 33v404q0 56 -39.5 96t-96.5 40h-567q-56 0 -96 -40t-40 -96v-567q0 -57 40 -97t96 -40h404h3.5h4.5t4.5 0.5t5.5 1t5 1t5 1.5t4 3t3 4t2 5t1 6
q0 10 -2.5 16t-8.5 8t-9.5 3t-10.5 0l-7 -1v0zM931 0l-233 234q54 65 54 150q0 100 -70.5 170t-170 70t-169.5 -70t-70 -169.5t70 -170t170 -70.5q85 0 150 54l234 -233l2.5 -2.5t7 -4.5t11 -4.5t12 -0.5t11.5 7q7 9 5.5 18t-7.5 16l-7 6v0zM511.5 204q-74.5 0 -127 53
t-52.5 127.5t52.5 127t127 52.5t127.5 -52.5t53 -127t-53 -127.5t-127.5 -53z" />
    <glyph glyph-name="menu16" unicode="&#xe61c;" horiz-adv-x="1058" 
d="M696.5 -66q-122.5 0 -209 86.5t-86.5 208.5t86.5 208.5t209 86.5t209 -86.5t86.5 -208.5t-86.5 -208.5t-209 -86.5zM696.5 465q-97.5 0 -167 -69t-69.5 -167t69.5 -167t167 -69t166.5 69t69 167t-69 167t-166.5 69zM710 84v0q0 -1 -1 -2.5t-2 -2.5q-9 -9 -21 -9t-21 9
l-104 104q-9 9 -9 21t8.5 20.5t21 8.5t20.5 -8l79 -79l126 193q8 9 20 10.5t21.5 -6t11 -19.5t-6.5 -22zM778 707q0 17 -12 28.5t-29 11.5h-16q-5 -2 -10 -2q-12 0 -20.5 9t-8.5 21t8.5 20.5t20.5 8.5q5 0 10 -1h31q33 0 57 -24t24 -57v-166q-25 10 -55 17v134zM608 716
q-12 0 -21 8.5t-9 20.5v59q0 13 9 21.5t21 8.5t20.5 -8.5t8.5 -21.5v-59q0 -12 -8.5 -20.5t-20.5 -8.5zM445.5 716q-12.5 0 -21 8.5t-8.5 20.5v59q0 13 8.5 21.5t21 8.5t21 -8.5t8.5 -21.5v-59q0 -12 -8.5 -20.5t-21 -8.5zM143 32q-33 0 -57 23.5t-24 57.5v609q0 33 24 57
t57 24h27q5 1 10 1q12 0 21 -8.5t9 -20.5t-9 -21t-21 -9q-5 0 -10 2h-12q-17 0 -29 -11.5t-12 -28.5v-579q0 -17 12 -29t29 -12h214q13 -30 30 -55h-259v0zM283.5 716q-12.5 0 -21 8.5t-8.5 20.5v59q0 13 8.5 21.5t21 8.5t21 -8.5t8.5 -21.5v-59q0 -12 -8.5 -20.5t-21 -8.5z
" />
    <glyph glyph-name="menu17" unicode="&#xe61d;" 
d="M673.5 -63q-117.5 0 -200.5 85.5t-83 207t83 207t200.5 85.5t200.5 -85.5t83 -207t-83 -207t-200.5 -85.5zM675 464q-94 0 -160 -69t-66 -166t66 -165.5t160 -68.5t160.5 68.5t66.5 165.5t-66.5 166t-160.5 69zM753 703q0 17 -11 29t-28 12h-15q-5 -2 -9 -2
q-12 0 -20.5 8.5t-8.5 20.5t8.5 20.5t20.5 8.5q4 0 9 -2h30q32 0 55 -23.5t23 -56.5v-164q-25 10 -54 17v132zM590.5 712q-11.5 0 -20 9t-8.5 21v58q0 12 8.5 20.5t20 8.5t20 -8.5t8.5 -20.5v-58q0 -12 -8.5 -21t-20 -9zM434.5 712q-11.5 0 -20 9t-8.5 21v58q0 12 8.5 20.5
t20 8.5t20 -8.5t8.5 -20.5v-58q0 -12 -8.5 -21t-20 -9zM144 34q-32 0 -55 23.5t-23 56.5v604q0 33 23 56.5t55 23.5h26q5 2 9 2q12 0 20.5 -8.5t8.5 -20.5t-8.5 -20.5t-20.5 -8.5q-4 0 -9 2h-12q-16 0 -27.5 -12t-11.5 -29v-574q0 -17 11.5 -28.5t27.5 -11.5h206
q13 -30 29 -55h-249v0zM278.5 712q-11.5 0 -20 9t-8.5 21v58q0 12 8.5 20.5t20 8.5t20 -8.5t8.5 -20.5v-58q0 -12 -8.5 -21t-20 -9zM864 235q0 -12 -8.5 -20t-20.5 -8h-315q-12 0 -20.5 8t-8.5 20t8.5 20t20.5 8h315q12 0 20.5 -8t8.5 -20z" />
    <glyph glyph-name="btn08" unicode="&#xe61e;" 
d="M887 358h-750q-13 0 -22 9t-9 22t9 22t22 9h750q13 0 22 -9t9 -22t-9 -22t-22 -9zM512 -17q-13 0 -22 9.5t-9 21.5v750q0 13 9 22t22 9t22 -9t9 -22v-750q0 -13 -9 -22t-22 -9z" />
    <glyph glyph-name="btn11" unicode="&#xe61f;" 
d="M313 623l-276 -277l277 -277l277 277zM313 164l-181 182l182 181l181 -181zM821 613q-107 107 -272 107v144l-175 -181l175 -181v144q59 0 116.5 -22.5t100.5 -65.5q57 -57 77.5 -136.5t0 -159t-77.5 -137.5q-88 -87 -212 -87q-67 0 -126 26l-58 -53q86 -48 184 -48
q76 0 146.5 28.5t125.5 84.5q74 73 99 170.5t-2.5 195t-101.5 171.5z" />
    <glyph glyph-name="btn14" unicode="&#xe620;" 
d="M902 461l-77 62q-5 4 -11 4h-2q-7 -1 -12 -7l-217 -271q-3 -3 -4 -8l-35 -94q-2 -3 -2 -6q0 -8 5 -13q6 -6 14 -6v0v0q3 0 5 1l113 36q7 2 10 8l216 268q5 6 4 13.5t-7 12.5zM663 192l-72 -23l22 60l204 254l48 -39zM844 321q-11 0 -19 -8.5t-8 -19.5v-274h-613v730h432
l181 -113v-68q0 -12 8 -20t19 -8t18.5 8t7.5 20v84q0 15 -13 23l-200 125q-7 4 -14 4h-465q-11 0 -18.5 -8t-7.5 -20v-785q0 -11 7.5 -19t18.5 -8h666q11 0 18.5 8t7.5 19v302q0 11 -7.5 19.5t-18.5 8.5zM296 606v0q0 9 -9 9v0h-35q-9 0 -9 -9v-34q0 -10 9 -10h35v0
q9 0 9 10v0v34zM277 581h-16v16h16v-16zM287 440h-35q-9 0 -9 -9v-35q0 -9 9 -9h35v0q9 0 9 9v0v35v0q0 9 -9 9v0zM277 406h-16v16h16v-16zM688 589v0q0 9 -9 9v0h-332q-9 0 -9 -9t9 -9h332v0q9 0 9 9v0zM347 423q-9 0 -9 -9.5t9 -9.5h268q10 0 10 9.5t-10 9.5h-268z" />
    <glyph glyph-name="open-right" unicode="&#xe622;" 
d="M371 59l-46 47l280 280l-280 280l46 46l327 -326l-327 -327v0z" />
    <glyph glyph-name="open-bot" unicode="&#xe623;" 
d="M145 539l53 53l312 -312l313 312l53 -53l-366 -365z" />
    <glyph glyph-name="open-left" unicode="&#xe624;" 
d="M662 731l50 -50l-299 -299l299 -298l-50 -50l-348 348z" />
    <glyph glyph-name="month" unicode="&#xe625;" 
d="M944 832h-864q-33 0 -56.5 -26.5t-23.5 -64.5v-714q0 -38 23.5 -64.5t56.5 -26.5h864q33 0 56.5 26.5t23.5 64.5v714q0 38 -23.5 64.5t-56.5 26.5zM817 628l-71 -71h-134l-71 71h276zM527 615l71 -70v-97l-44 -46l-27 28v185zM434 628l-71 -71h-134l-71 71h276zM372 425
l36 -36l-36 -35h-152l-35 35l35 36h152zM158 150l71 71h134l71 -71h-276zM447 164l-71 71v96l45 44l26 -26v-185zM447 429l-26 -27l-45 45v97l71 70v-185zM527 349l27 26l44 -44v-97l-71 -71v186zM541 150l71 71h134l71 -71h-276zM830 164l-71 71v96l45 44l26 -26v-185z
M830 429l-26 -27l-45 45v97l71 70v-185z" />
    <glyph glyph-name="time" unicode="&#xe626;" 
d="M673 242l-13 -13q-8 -8 -20 -8.5t-21 7.5l-151 129q-8 8 -14 22t-5 25l16 249q0 11 9 19.5t20 8.5h19q11 0 19.5 -8.5t9.5 -19.5l13 -204q1 -28 20 -49l99 -117q8 -9 7.5 -21t-8.5 -20zM526.5 849q-91.5 0 -175 -35.5t-143.5 -95.5t-95.5 -143.5t-35.5 -175t35.5 -174.5
t95.5 -143.5t143.5 -96t175 -35.5t174.5 35.5t143.5 96t96 143.5t35.5 174.5t-35.5 175t-96 143.5t-143.5 95.5t-174.5 35.5z" />
    <glyph glyph-name="days" unicode="&#xe627;" 
d="M512 892q-103 0 -197 -40.5t-162 -108.5t-108.5 -162t-40.5 -197t40.5 -197t108.5 -162t162 -108.5t197 -40.5t197 40.5t162 108.5t108.5 162t40.5 197t-40.5 197t-108.5 162t-162 108.5t-197 40.5zM344 664l24 22q18 16 39 16h185q23 -1 35 -16l17 -21l-57 -45h-206z
M621 277l-28 -151q-3 -18 -6 -22q-2 -4 -15 -16l-28 -24l-36 45l35 198l49 40l20 -23q11 -13 11 -27q0 -9 -2 -20zM676 591l-26 -149q-6 -31 -26 -49l-28 -22l-34 39l34 198l57 44l15 -20q9 -12 9 -24q1 -4 -1 -17z" />
    <glyph glyph-name="message" unicode="&#xe628;" horiz-adv-x="1025" 
d="M512 834q-122 0 -226 -52.5t-164 -142.5t-60 -197q0 -79 34 -149.5t94 -124.5q22 -19 102.5 -77.5t150 -107.5l69.5 -49v116q122 0 226 52.5t164 143t60 197t-60 196.5t-164 142.5t-226 52.5zM289.5 382q-24.5 0 -42 17t-17.5 41t17.5 41t42 17t42.5 -17t18 -41t-18 -41
t-42.5 -17zM514 382q-25 0 -42.5 17t-17.5 41t17.5 41t42.5 17t42.5 -17t17.5 -41t-17.5 -41t-42.5 -17zM740 382q-25 0 -42.5 17t-17.5 41t17.5 41t42.5 17t42.5 -17t17.5 -41t-17.5 -41t-42.5 -17z" />
    <glyph glyph-name="menu12" unicode="&#xe629;" 
d="M266 209h474q13 0 18 14t-0.5 27.5t-17.5 13.5h-474q-12 0 -17 -13.5t0 -27t17 -14.5zM516 402h-263q-14 0 -19.5 -13.5t0.5 -27.5t19 -14h263q12 0 17 13.5t0.5 27.5t-17.5 14zM835 320v-327h-503v122q0 8 -9 17t-17 9h-117v637h182q9 0 12.5 13.5t0 27.5t-12.5 14h-210
q-9 0 -17.5 -8.5t-8.5 -17.5v-695q0 -7 4 -13l2 -2l156 -153q8 -7 16 -6h546q9 0 19.5 9t10.5 17v355q0 14 -27 14t-27 -13zM617 490q28 -3 49 1.5t44 19.5l127 -125q7 -7 18 -7q4 0 15 7.5t15 12.5q7 8 7 18.5t-7 18.5l-124 123q42 49 42 118q0 78 -56.5 132t-134.5 54
q-87 0 -134 -52t-47 -134q0 -78 49 -127.5t137 -59.5zM617 797q5 -1 13 -2t28.5 -8t36.5 -18.5t29 -35.5t13 -56q0 -49 -36 -84.5t-84 -35.5q-49 0 -84.5 35.5t-35.5 84t35.5 84.5t84.5 36z" />
    <glyph glyph-name="btn61" unicode="&#xe72c;" 
d="M821 -39h-616l-1 1q-17 0 -34 10q-23 13 -32 37q0 1 -5 16v68l1 2q3 28 3 29q6 32 12 51q10 37 32 76q22 38 53 69q11 12 20 19q14 12 42 34q1 1 14 9l-9 10q-24 32 -36 61q-16 40 -17 76q-3 42 5 74q10 43 32 78q22 34 46 55q16 13 24 19q27 20 62 33q33 12 63 15
q1 0 14 2h38l3 -1q4 -1 10.5 -1.5t12.5 -1.5t11 -2q49 -9 95 -39q28 -18 54 -48q16 -18 29 -42q28 -49 32 -106q2 -32 -3 -57t-15 -51q-9 -28 -30 -56q-1 0 -15 -18q36 -22 67 -52q13 -13 32 -36q20 -24 36 -55q24 -45 34 -92q7 -33 7 -58l1 -5v-55l-2 -10q-11 -43 -55 -55
q-1 -1 -15 -3v0zM678 346l-7 -5q-38 -26 -79 -39q-33 -10 -75 -11q-3 0 -9 0.5t-9 0.5q-21 -1 -47 6q-57 13 -98 44q-6 4 -12 1q-35 -20 -60 -45q-16 -15 -32 -35q-26 -32 -41 -73q-19 -51 -18 -106q0 -31 1 -37q1 -12 11.5 -21t23.5 -9h571q5 0 9 1q11 3 19 11.5t8 19.5
q1 38 -1 66q-1 21 -7 44q-8 36 -28 71q-19 33 -48 63q-6 6 -24 21q-22 18 -48 32zM513 347q28 2 30 2q29 4 57 17q39 17 67 47q25 27 39 61q15 34 15 73q0 6 -1 15q-3 23 -4 30q-5 24 -19 50q-13 23 -30 41q-8 8 -21 20q-24 19 -55 31q-40 16 -84 15q-1 0 -10 -1
q-19 -2 -21 -2q-28 -7 -42 -12q-34 -13 -62 -39q-23 -20 -38 -45q-26 -42 -29 -90q-1 -22 3 -44q5 -28 16 -52q18 -38 49 -65q24 -20 51 -32q43 -20 89 -20z" />
    <glyph glyph-name="btn51" unicode="&#xe665;" 
d="M499.5 482h1.5v0h234v-79q0 -10 7 -17t17 -7t17 7t7 17v105q0 10 -8 17l-273 273q-7 8 -17 8h-1v0h-294q-20 0 -34 -14t-14 -34v-682q0 -20 14 -34t34 -14h248v1q9 1 14.5 7.5t5.5 15.5t-5.5 16t-14.5 8v0h-234q-6 0 -10 4.5t-4 10.5v653q0 6 4 10t10 4h271v-252
q0 -10 7 -17t17 -7h0.5zM523 710l180 -180h-180v180zM742 147l144 144q7 7 7 17t-7 17t-17 7t-17 -7l-144 -144l-144 144q-7 7 -17 7t-17 -7t-7 -17t7 -17l144 -144l-144 -144q-7 -7 -7 -17t7 -17t17 -7t17 7l144 144l144 -144q7 -7 17 -7t17 7t7 17t-7 17z" />
    <glyph glyph-name="checkbox-off" unicode="&#xe62d;" 
d="M718 93h-411q-36 0 -61.5 25.5t-25.5 61.5v411q0 36 25.5 61.5t61.5 25.5h411q36 0 61.5 -25.5t25.5 -61.5v-411q0 -36 -25.5 -61.5t-61.5 -25.5zM730 60h-436q-44 0 -75 31t-31 75v436q0 44 31 75t75 31h436q44 0 75 -31t31 -75v-436q0 -44 -31 -75t-75 -31zM294 670
q-28 0 -48.5 -20t-20.5 -48v-436q0 -29 20 -49t49 -20h436q29 0 49 20t20 49v436q0 28 -20 48t-49 20h-436z" />
    <glyph glyph-name="checkbox-on" unicode="&#xe62f;" 
d="M718 93h-411q-36 0 -61.5 25.5t-25.5 61.5v411q0 36 25.5 61.5t61.5 25.5h411q36 0 61.5 -25.5t25.5 -61.5v-411q0 -36 -25.5 -61.5t-61.5 -25.5zM730 60h-436q-44 0 -75 31t-31 75v436q0 44 31 75t75 31h436q44 0 75 -31t31 -75v-436q0 -44 -31 -75t-75 -31zM294 670
q-28 0 -48.5 -20t-20.5 -48v-436q0 -29 20 -49t49 -20h436q29 0 49 20t20 49v436q0 28 -20 48t-49 20h-436zM721 493l-34 34q-8 9 -17 0l-174 -188l-101 104q-9 8 -17 0l-34 -35q-9 -9 0 -17l143 -148q2 -2 4 -2q8 -5 14 2l32 35h1v1l182 197q10 8 1 17z" />
    <glyph glyph-name="radio-on" unicode="&#xe630;" 
d="M181 389q0 -90 44.5 -166.5t121 -121t166 -44.5t166 44.5t121 121t44.5 166.5t-44.5 166t-121 120.5t-166 44.5t-166 -44.5t-121 -120.5t-44.5 -166zM512 720q-91 0 -168.5 -45t-122.5 -122.5t-45 -168.5t45 -168.5t122.5 -122.5t168.5 -45t168.5 45t122.5 122.5
t45 168.5t-45 168.5t-122.5 122.5t-168.5 45zM512 94q-120 0 -205 85t-85 205t85 205t205 85t205 -85t85 -205t-85 -205t-205 -85zM373 383.5q0 -57.5 41 -98.5t98.5 -41t98 41t40.5 98.5t-40.5 98.5t-98.5 41t-98.5 -41t-40.5 -98.5z" />
    <glyph glyph-name="radio-off" unicode="&#xe632;" 
d="M181 389q0 -90 44.5 -166.5t121 -121t166 -44.5t166 44.5t121 121t44.5 166.5t-44.5 166t-121 120.5t-166 44.5t-166 -44.5t-121 -120.5t-44.5 -166zM512 720q-91 0 -168.5 -45t-122.5 -122.5t-45 -168.5t45 -168.5t122.5 -122.5t168.5 -45t168.5 45t122.5 122.5
t45 168.5t-45 168.5t-122.5 122.5t-168.5 45zM512 94q-120 0 -205 85t-85 205t85 205t205 85t205 -85t85 -205t-85 -205t-205 -85z" />
    <glyph glyph-name="sclook" unicode="&#xe8f6;" horiz-adv-x="1025" 
d="M482 160v0v0h-2l-81 3h-92v0v0q-10 0 -17 -7t-7 -17q0 -19 18 -24v0h2h2h2h90l85 -2h3v0q9 1 15 7.5t6 15.5q0 11 -7 17.5t-17 6.5zM482 300v0h-2h-1h-80h-92v0v0q-10 0 -17 -7t-7 -17q0 -19 18 -23v0q1 0 2 -1h2h2h175v0q10 0 17 7t7 17t-7 17t-17 7zM306 437h-1
q-10 0 -17 -7t-7 -17t7 -17t17 -7h414q3 0 5 1v0q8 1 14 8t6 16q0 10 -7 16.5t-17 6.5h-1h-1h-412v0zM958 -23l-74 74q33 46 32 102q-2 66 -49 113.5t-113 49.5q-73 2 -124 -49t-48 -124q2 -66 49.5 -113t113.5 -49q57 -1 102 32l74 -74q3 -4 9 -4t9 4l19 19q10 9 0 19v0v0z
M629 148q0 52 38 87.5t90 31.5q44 -3 75.5 -34.5t34.5 -75.5q4 -52 -31.5 -90t-87.5 -38q-49 0 -84 35t-35 84v0zM570 -18h-377v803h412v-183q0 -17 11 -30.5t27 -17.5l10 -1h182v-185h48v211q1 14 -11 26l-1 2l-135 131l-41 39.5t-44.5 43l-5.5 5.5q-1 0 -5 3q-8 4 -14 4
h-2h-294h-137q-17 0 -30.5 -11t-16.5 -27q-1 -3 -1 -10v-802q0 -18 11 -31t28 -17h9h377v47zM653 750l156 -148h-156v148z" />
    <glyph glyph-name="btn25" unicode="&#xe636;" 
d="M700 519l-66 66l-37 -37l40 -40h-187q-68 0 -115.5 -47.5t-47.5 -114.5t47.5 -114.5t115.5 -47.5h104v52h-104q-46 0 -78.5 32.5t-32.5 78t32.5 77.5t78.5 32h187l-40 -40l37 -37l103 104zM512.5 830q-90.5 0 -173 -35.5t-142.5 -95t-95 -142t-35 -173.5t35 -173.5
t95 -142t142.5 -95t173 -35.5t173 35.5t142.5 95t95 142t35 173.5t-35.5 173.5t-95 142t-142 95t-173 35.5zM512.5 -5q-105.5 0 -195.5 52t-142 141.5t-52 195.5t52 195.5t142 141.5t195.5 52t195.5 -52t142 -141.5t52 -195.5t-52 -195.5t-142 -141.5t-195.5 -52z" />
    <glyph glyph-name="btn60" unicode="&#xe66b;" horiz-adv-x="1025" 
d="M640 640q0 11 -8 19t-19 8h-370q-11 0 -19 -8t-8 -19t8 -19t19 -8h370q11 0 19 8t8 19zM243 572q-11 0 -19 -7.5t-8 -19t8 -19t19 -7.5h234q11 0 19 7.5t8 19t-8 19t-19 7.5h-234zM739 475l-86 -86l-85 86q-8 8 -19.5 8t-19 -8t-7.5 -19t7 -19l70 -69h-37q-11 0 -19 -8
t-8 -19t8 -19t19 -8h64v-22h-64q-11 0 -19 -8t-8 -19t8 -19t19 -8h64v-47q0 -11 8 -19t19 -8t19 8t8 19v47h64q11 0 19 8t8 19t-8 19t-19 8h-64v22h64q11 0 19 8t8 19t-8 19t-19 8h-36l69 69q8 8 8 19t-8 19t-19.5 8t-18.5 -8zM907 706q0 30 -21.5 52t-51.5 22l-644 -1
q-30 0 -52 -21.5t-22 -51.5v-691q0 -11 8 -19t19 -8h4q11 0 19 8l71 66l71 -66q8 -8 19 -8h7q11 0 19 8l71 66l72 -66q7 -8 18 -8h8q10 0 18 8l72 66l71 -66q8 -8 18 -8q12 0 20 9q8 8 7.5 19.5t-8.5 18.5l-90 84q-8 7 -18.5 7t-18.5 -7l-75 -70l-75 70q-8 7 -18.5 7
t-18.5 -7l-75 -70l-76 70q-7 7 -18 7t-18 -7l-49 -45v632q0 8 6 14t14 6h644q8 0 13.5 -6t5.5 -14v-627l1 -56q0 -11 7.5 -19t19.5 -8v0q11 0 19 8t8 19z" />
    <glyph glyph-name="btn26" unicode="&#xe63b;" 
d="M800 323q-66 0 -113 -46t-47 -112q0 -63 46 -109.5t110 -47.5h4q66 0 112.5 46t46.5 111.5t-46.5 111.5t-112.5 46zM799.5 71q-39.5 0 -67.5 27.5t-28 67.5q0 39 28 67t67.5 28t67.5 -28t28 -67.5t-28 -67t-67.5 -27.5zM223 323q-66 0 -113 -46t-47 -112q0 -63 46 -109.5
t111 -47.5h3q66 0 113 46t47 111.5t-47 111.5t-113 46zM223.5 71q-39.5 0 -68 27.5t-28.5 67.5q0 39 28.5 67t68 28t67.5 -28t28 -67q0 -40 -28 -67.5t-67.5 -27.5zM522 484h3q66 0 113 46.5t47 111.5t-47 111.5t-113 46.5t-112.5 -46.5t-46.5 -111.5q0 -64 45.5 -110
t110.5 -48zM525 737q40 0 68.5 -28t28.5 -67q0 -40 -28.5 -68t-68.5 -28q-39 0 -67 28t-28 68q-1 39 27 67t68 28zM225 355h5v2q10 57 42 106.5t80 82.5l1 1v1q-11 20 -18 44v2l-2 -1q-65 -40 -105.5 -103.5t-49.5 -137.5l-1 -2h3q22 5 45 5zM803 357v-2h1q25 0 50 -7l2 -1
v2q-9 72 -47 134t-99 104l-2 1v-2q-6 -22 -19 -44l-1 -1l1 -1q95 -69 114 -183zM647 51l-1 1h-1q-60 -29 -128 -29q-72 0 -134 32l-2 1l-1 -1q-14 -20 -33 -36l-1 -1l2 -1q78 -45 169 -45q88 0 164 42l2 1l-2 1q-21 17 -34 35z" />
    <glyph glyph-name="btn27" unicode="&#xe63c;" 
d="M579 779h-121q-38 0 -64.5 -26.5t-26.5 -64.5t26.5 -64.5t64.5 -26.5h121q38 0 64.5 26.5t26.5 64.5t-26.5 64.5t-64.5 26.5zM579 658h-121q-13 0 -21.5 9t-8.5 21q0 13 8.5 21.5t21.5 8.5h121q13 0 21.5 -8.5t8.5 -21t-9 -21.5t-21 -9zM579 476h-121q-38 0 -64.5 -26.5
t-26.5 -64.5t26.5 -64.5t64.5 -26.5h121q38 0 64.5 26.5t26.5 64.5t-26.5 64.5t-64.5 26.5zM579 355h-121q-13 0 -21.5 9t-8.5 21q0 13 8.5 21.5t21.5 8.5h121q13 0 21.5 -9t8.5 -21t-9 -21t-21 -9zM579 173h-121q-38 0 -64.5 -26.5t-26.5 -64.5t26.5 -64.5t64.5 -26.5h121
q38 0 64.5 26.5t26.5 64.5t-26.5 64.5t-64.5 26.5zM579 52h-121q-13 0 -21.5 9t-8.5 21q0 13 8.5 22t21.5 9h121q13 0 21.5 -9t8.5 -22q0 -12 -9 -21t-21 -9zM246 113q-50 0 -85.5 35t-35.5 85.5t35.5 85.5t85.5 35h60v61h-60q-76 0 -129 -53.5t-53 -128.5t53 -128.5
t129 -53.5v-60l91 91l-91 91v-60zM791 718h-60v-60h60q50 0 85.5 -35.5t35.5 -85.5t-35.5 -85.5t-85.5 -35.5v61l-91 -91l91 -92v61q75 0 128.5 53t53.5 128.5t-53.5 128.5t-128.5 53z" />
    <glyph glyph-name="btn28" unicode="&#xe63e;" 
d="M505 20q-77 0 -148 31l-16 7l15 36l-96 -31l45 -89l16 38l16 -7q80 -35 167 -35q73 0 143 25q62 23 115 65l-33 38q-99 -78 -224 -78zM892 211q47 108 30 226q-15 110 -86 199l-38 -33q62 -79 75 -179.5t-28 -193.5l-7 -16l-36 15l31 -96l89 45l-38 16zM179 540l7 16
l36 -15l-31 96l-89 -45l38 -15l-7 -17q-48 -109 -31 -226q16 -110 86 -199l39 33q-63 79 -76 179t28 193zM703 757l-16 7q-80 35 -167 35q-73 0 -143 -25q-63 -23 -116 -65l34 -38q99 78 225 78q76 0 147 -31l17 -7l-15 -36l95 31l-44 89zM718 360q12 0 21 8.5t9 20.5v3
q0 12 -9 20.5t-21 8.5h-406q-12 0 -20.5 -8.5t-8.5 -20.5v-3q0 -12 8.5 -20.5t20.5 -8.5h406z" />
    <glyph glyph-name="btn29" unicode="&#xe63f;" 
d="M837 452q4 0 10 -1q-38 101 -129 163l-13 9l-5 -16q-7 -23 -18 -41l-5 -9l9 -6q67 -49 95 -126l7 7q21 20 49 20zM522 504q-64 1 -109 47t-45 108q0 65 46.5 110.5t111.5 45.5t111.5 -45.5t46.5 -110t-46.5 -110t-111.5 -45.5h-4zM526 753q-39 0 -67 -27.5t-28 -66
t28 -66t67 -27.5t67 27.5t28 66t-28 66t-67 27.5zM229 34q-63 2 -108.5 47.5t-45.5 108.5q0 64 46.5 110t111.5 46t111.5 -46t46.5 -110.5t-46.5 -110t-111.5 -45.5h-4zM233 284q-39 0 -67 -27.5t-28 -66.5t28 -66.5t67 -27.5t67 27.5t28 66.5t-28 66.5t-67 27.5zM452 68
q-30 8 -57 22l-9 4l-7 -8q-15 -20 -31 -33l-13 -11l15 -8q48 -27 101 -38v70q1 1 1 2zM234 367l15 -1l1 10q10 55 40 102t77 78l8 6l-5 9q-10 19 -16 42l-4 16l-14 -9q-65 -42 -106.5 -106t-50.5 -140l-2 -17l17 4q19 6 40 6zM990 290l-127 127q-8 8 -19 8t-20 -8l-317 -317
q-8 -8 -8 -20v-125q0 -12 8 -20t19 -8h127q11 0 19 8l190 190q8 9 8 20t-8 19.5t-19.5 8.5t-19.5 -9l-180 -181l-89 -1l-1 86l290 291l89 -88l-24 -26l-45 45q-8 8 -19 8t-19.5 -8t-8.5 -19.5t8 -19.5l64 -64q8 -8 19.5 -8t19.5 8l63 63q8 9 8 20t-8 20z" />
    <glyph glyph-name="menu24" unicode="&#xe640;" 
d="M895 78q-10 0 -18 7.5t-8 17.5v639h-638q-11 0 -18.5 7.5t-7.5 18t7.5 18t18.5 7.5h664q11 0 18.5 -7.5t7.5 -18.5v-664q0 -10 -7.5 -17.5t-18.5 -7.5zM819 665v-664q0 -11 -7.5 -18.5t-18.5 -7.5h-664q-11 0 -18.5 7.5t-7.5 18.5v664q0 10 7.5 18t18.5 8h664
q10 0 18 -7.5t8 -18.5zM767 614q0 10 -7.5 18t-17.5 8h-562q-11 0 -18.5 -7.5t-7.5 -18.5v-562q0 -11 7.5 -18.5t18.5 -7.5h562q10 0 17.5 7.5t7.5 18.5v562z" />
    <glyph glyph-name="menu27" unicode="&#xe642;" 
d="M92 18h840v-41h-840v41zM247 427h-95q-25 0 -42.5 -17.5t-17.5 -42.5v-190q0 -25 17.5 -42.5t42.5 -17.5h95q25 0 42.5 17.5t17.5 42.5v190q0 25 -17.5 42.5t-42.5 17.5zM268 183q0 -11 -7.5 -19t-18.5 -8h-85q-11 0 -18.5 8t-7.5 19v177q0 12 7.5 19.5t18.5 7.5h85
q11 0 18.5 -7.5t7.5 -19.5v-177zM559 786h-95q-25 0 -42.5 -17.5t-17.5 -42.5v-550q0 -25 17.5 -42.5t42.5 -17.5h95q25 0 42.5 17.5t17.5 42.5v550q0 25 -17.5 42.5t-42.5 17.5zM580 186q0 -11 -7.5 -19.5t-18.5 -8.5h-85q-11 0 -18.5 8.5t-7.5 19.5v530q0 11 7.5 19.5
t18.5 8.5h85q11 0 18.5 -8.5t7.5 -19.5v-530zM872 623h-96q-24 0 -42 -18t-18 -42v-387q0 -25 18 -42.5t42 -17.5h96q24 0 42 17.5t18 42.5v387q0 24 -18 42t-42 18zM892 186q0 -11 -7.5 -19t-18.5 -8h-85q-10 0 -18 8t-8 19v367q0 11 7.5 19t18.5 8h85q11 0 18.5 -8
t7.5 -19v-367z" />
    <glyph glyph-name="menu25" unicode="&#xe643;" 
d="M485 384q118 0 214 -79l10 53h-2q-54 38 -126 58q53 26 85.5 77.5t32.5 113.5q0 88 -62.5 151t-151.5 63t-151.5 -62.5t-62.5 -151.5q0 -62 32.5 -113.5t85.5 -77.5q-125 -34 -208 -144t-88 -253h-1v-36h678v41h-632q7 156 105.5 258t241.5 102zM317 607q0 74 47 121
t121 47t121.5 -47t47.5 -121t-47.5 -121.5t-121.5 -47.5t-121 47.5t-47 121.5zM166 59h604v-23h-604v23zM847 163q37 6 60.5 35.5t23.5 69.5q0 45 -31.5 76t-75.5 31t-75.5 -31t-31.5 -76q0 -39 25.5 -69t63.5 -36v-216h41v72h66v40h-66v31h66v40h-66v33zM824 208
q-25 0 -42.5 17.5t-17.5 42.5t17.5 42.5t42.5 17.5t42.5 -17.5t17.5 -42.5t-17.5 -42.5t-42.5 -17.5z" />
    <glyph glyph-name="menu23" unicode="&#xe641;" 
d="M770 601zM530 562v39h240v-39h-240zM251 642h201v-120h-81v-120h201v40h200v-120h-200v39h-240v161h-81v120zM730 601h40h-40zM770 562v39h-240v-39h240zM251 521h81v-160h240v-40h200v120h-200v-40h-201v120h81v120h-201v-120zM171 802h-80v-641h240v-40h-40v-39h-40
v-40h-39v-40h600v40h-40v39h-40v40h-40v40h240v641h-761zM871 222h-719v519h719v-519z" />
    <glyph glyph-name="menu29" unicode="&#xe644;" horiz-adv-x="1163" 
d="M998 248h-55v85q0 31 -22.5 53.5t-54.5 22.5h-273v110h56q21 0 36 15t15 36v158q0 21 -15 36t-36 15h-158q-21 0 -36 -15t-15 -36v-158q0 -21 15 -36t36 -15h51v-110h-269q-31 0 -54 -22.5t-23 -53.5v-85h-54q-21 0 -36 -15t-15 -36v-158q0 -21 15 -36t36 -15h158
q21 0 36 15t15 36v158q0 21 -15 36t-36 15h-53v85q0 10 8 17.5t18 7.5h269v-110h-51q-21 0 -36 -15t-15 -36v-158q0 -21 15 -36t36 -15h158q21 0 36 15t15 36v158q0 21 -15 36t-36 15h-56v110h273q10 0 18 -7.5t8 -17.5v-85h-53q-21 0 -36 -15t-15 -36v-158q0 -21 15 -36
t36 -15h158q21 0 36 15t15 36v158q1 21 -14 36t-36 15zM490 729h158v-158h-158v158zM299 39h-157v158h157v-158zM649 39h-158v158h158v-158zM998 39h-159v158h158v-158h1z" />
    <glyph glyph-name="btn57" unicode="&#xe751;" 
d="M952 561q-33 79 -94 139.5t-140 94.5q-82 34 -171 34t-171 -34q-79 -34 -140 -94.5t-94 -139.5q-29 -67 -34 -143l-10 126q-9 19 -31 19q-7 0 -13 -2q-13 -6 -17.5 -19t0.5 -25l68 -153q3 -6 7 -10l-6 7q4 -6 9 -10l-6 6v0q5 -6 11 -9l-9 6h1l1 -1v0q4 -4 10 -6l-8 4
l1 -1q1 0 2 -1v0q5 -3 10 -4l-8 3q5 -3 12 -4l-8 2v0q1 0 2 -1v0v0h2v0h1v0q3 -1 6 -1h-4v0v0h2v0h0.5h1.5v0h1h2v0h1q2 0 5 1l-2 -1v0q1 1 2 1h1v0q5 2 9 4l-7 -3v0q5 2 9 5l-7 -4v0h1q5 3 9 7l-6 -5q7 4 11 10l120 104q10 9 11 22.5t-8 23.5q-10 12 -25 12v0v0
q-13 0 -22 -9l-60 -52q25 131 129 217t238 86q101 0 187 -50t136.5 -136t50.5 -187.5t-50.5 -187.5t-136.5 -136t-187 -50q-138 0 -243 90q-9 8 -22 8v0q-15 0 -25 -12q-9 -10 -8 -24t12 -23q123 -105 286 -105q89 0 171 34q79 34 140 94.5t94 139.5q35 82 35 171.5
t-35 171.5zM683 292h-102v48h102q13 0 21 8t8 21.5t-8 21.5t-21 8h-102v24l114 113q8 9 8 21t-8.5 21t-20.5 9t-21 -9l-104 -104l-105 104q-9 9 -20.5 9t-20.5 -9t-9 -21t9 -21l119 -119v-18h-107q-14 0 -22 -8t-8 -21.5t8 -21.5t22 -8h107v-48h-107q-14 0 -22 -8t-8 -21.5
t8 -21.5t22 -8h107v-66q0 -13 8 -21.5t22 -8.5q9 0 17 8.5t12 21.5v66h102q13 0 21 8t8 21.5t-8 21.5t-21 8z" />
    <glyph glyph-name="btn52" unicode="&#xe666;" 
d="M809 579q0 59 -9 96t-23 52t-35.5 21t-41 3.5t-45 -1.5t-43.5 8q-9 3 -22 14t-28.5 19t-36.5 8h-77q-36 4 -65 0.5t-51.5 -1.5t-40 -5.5t-30 -11t-21 -18.5t-14 -28t-8 -38.5t-3.5 -51.5t-1 -66q-54 -5 -86.5 -38.5t-32.5 -89.5v-348q0 -69 41 -103.5t114 -34.5h532
q61 0 103.5 28.5t42.5 81.5v393q0 48 -34.5 77.5t-84.5 33.5zM644 711q24 0 40.5 -0.5t30.5 -4l22 -5.5t14.5 -11t9 -15t4 -22.5t2 -28t0.5 -37.5v-17h-256v37t1 29t2.5 24t5.5 17t7.5 13.5t12 8.5t16.5 6.5t23 3t29 2.5h36zM320 757q36 7 119 4t114 -13q-10 -12 -24 -17.5
t-23.5 -7.5t-18 -17t-10.5 -47l2 -89l-226 11q-5 42 -5 78.5t18 63.5t54 34zM885 118q0 -54 -22.5 -79.5t-73.5 -25.5h-547q-52 0 -76 25.5t-24 79.5q0 48 -1.5 103t-2.5 87t-0.5 68.5t2 56t7.5 40.5t14.5 30.5t23.5 18t35 10.5t49 1l326 -1q32 0 73.5 1.5t65.5 2.5t52.5 0
t43.5 -6.5t29.5 -16.5t20 -30.5t5.5 -47.5v-317v0zM622 425l-10 2l-7.5 1.5t-6 0.5h-4.5t-3.5 -2.5t-3.5 -4.5t-4.5 -8t-6 -11.5t-8 -16t-10.5 -20.5q-30 -59 -42 -74q-5 12 -39 80q-2 4 -5.5 11.5t-5 10.5t-4.5 8.5t-5 8t-5 6t-6 4.5t-7 3t-8 2.5t-10 0.5t-12 -1l65 -140
q-27 0 -39 -1.5t-14 -4.5t-1.5 -8.5t-1.5 -12.5q4 -2 7 -5t6 -4t12 -3l56 1l-1 -113h41v114h87v37l-64 1l68 139z" />
    <glyph glyph-name="btn56" unicode="&#xe669;" 
d="M263 24q-56 0 -96 39t-40 93v29h59v-29q0 -31 22.5 -53t54.5 -22h528q32 0 54 22t22 53v29h60v-29q0 -54 -40 -93t-96 -39h-528v0zM330 391h-201v52h201v76l138 -102l-138 -102v76zM585 417l139 102v-76h201v-52h-201v-76zM867 652v23q0 31 -22 53t-54 22h-528
q-32 0 -54.5 -22t-22.5 -53v-23h-59v23q0 54 40 93t96 39h528q56 0 96 -39t40 -93v-23h-60z" />
    <glyph glyph-name="btn65" unicode="&#xe66f;" 
d="M713 -59h-399q-69 0 -117.5 49t-48.5 118v537q0 69 48.5 117.5t117.5 48.5h399q69 0 117.5 -48.5t48.5 -117.5v-537q0 -69 -48 -118q-49 -49 -118 -49zM314 756q-42 0 -76.5 -34.5t-34.5 -76.5v-538q0 -42 34.5 -76.5t76.5 -34.5h399q43 0 77.5 34.5t34.5 76.5v538
q0 42 -34.5 76.5t-77.5 34.5h-399zM281 552l72 -65l138 98l-31 33l-110 -83l-37 42zM282 361l72 -65l138 98l-31 33l-110 -83l-37 42zM537 552h208v-36h-208v36zM538 380h208v-37h-208v37zM283 185l72 -65l138 98l-31 33l-110 -83l-37 42zM539 204h207v-37h-207v37z" />
    <glyph glyph-name="sunshi" unicode="&#xe679;" 
d="M488 16l-248 245h-96l344 -339l345 339h-96zM880 846q-93 0 -170.5 -14.5t-132 -39t-97 -60t-69 -74t-43 -84.5t-23 -88t-6.5 -87h-195l344 -339l346 339h-197l-0.5 16.5t-0.5 32.5t2.5 43.5t6.5 53t12.5 57.5t20.5 59.5t30.5 57t42.5 53t57 43.5t72 31zM563 437
q18 0 30 2v-33q-17 3 -30 3h-35l-9 -16v-8h43q18 0 31 2v-33q-17 2 -31 2h-43v-20q0 -23 2 -38h-43q2 19 2 38v20h-44q-18 0 -30 -2v33q17 -2 30 -2h44v8l-9 15h-34q-18 0 -31 -2v33q16 -3 31 -3h16l-41 65q-17 26 -20 30h50q3 -11 14 -29l43 -74l44 74q11 19 14 29h50
q-19 -27 -21 -30l-40 -64h17z" />
    <glyph glyph-name="zhengchang" unicode="&#xe67a;" horiz-adv-x="1025" 
d="M925 558q-34 81 -96 143t-143 96q-83 35 -174 35t-174 -35q-81 -34 -143 -96t-96 -143q-35 -83 -35 -174q0 -34 5 -67q1 -9 8.5 -15.5t17.5 -6.5h4q10 2 16.5 10.5t5.5 19.5q-5 29 -5 59v0q0 107 53 198.5t144.5 144.5t198.5 53t198.5 -53t144.5 -144.5t53 -198.5
t-53 -198.5t-144.5 -144.5t-198.5 -53q-81 0 -154.5 31t-129.5 90q-8 8 -19 8t-18.5 -7.5t-7.5 -18.5t7 -19q62 -64 144 -99q85 -37 178 -37q91 0 174 35q81 34 143 96t96 143q35 83 35 174t-35 174zM136 232q-16 0 -27.5 -11t-11.5 -27.5t11.5 -27.5t27.5 -11t27.5 11
t11.5 27.5t-11.5 27.5t-27.5 11zM671 543l-222 -191l-95 96l-64 -64l159 -159l286 254z" />
    <glyph glyph-name="ciji" unicode="&#xe67b;" 
d="M399 347h-187q-31 0 -53 -22t-22 -53v-188q0 -31 22 -52.5t53 -21.5h187q31 0 53 22t22 52v188q0 31 -22 53t-53 22zM410 103q0 -13 -8 -21t-22 -8h-149q-13 0 -21 8t-8 21v149q0 14 8 22t21 8h149q14 0 22 -8t8 -22v-149zM812 759h-187q-31 0 -53 -22t-22 -52v-188
q0 -31 22 -53t53 -22h187q31 0 53 22t22 53v188q0 30 -22 52t-53 22zM822 516q0 -14 -8 -22t-21 -8h-149q-14 0 -22 8t-8 22v149q0 13 8 21t22 8h149q13 0 21 -8t8 -21v-149zM399 759h-187q-31 0 -53 -22t-22 -52v-188q0 -31 22 -53t53 -22h187q31 0 53 22t22 53v188
q0 30 -22 52t-53 22zM410 516q0 -14 -8 -22t-22 -8h-149q-13 0 -21 8t-8 22v149q0 13 8 21t21 8h149q14 0 22 -8t8 -21v-149zM812 345h-187q-31 0 -53 -22t-22 -53v-188q0 -31 22 -52.5t53 -21.5h124v64h-105q-13 0 -21.5 8t-8.5 22v148q0 14 8.5 22t21.5 8h149q14 0 22 -8
t8 -22v-96h64v116q0 31 -22 53t-53 22z" />
    <glyph glyph-name="guidangxiangmu" unicode="&#xe67c;" 
d="M512 441h225v-57h-225v57zM287 329h450v-57h-450v57zM287 216h450v-57h-450v57zM118 665v-674l786 1v673h-786zM825 67h-626v522h626v-522zM326 422h78l15 -37h30l-68 168h-30l-68 -168h28zM364 520l33 -80h-64zM174 778h675v-56h-675v56z" />
    <glyph glyph-name="jiechudanbao" unicode="&#xe683;" 
d="M121 472h291v59h-292q-24 0 -41 -17t-17 -41v-179q0 -23 17 -40t41 -17h292v58h-291v177zM901 531h-295v-59h294v-176h-296v-59h297q23 0 40 17t17 41v179q0 23 -16.5 40t-40.5 17zM510 773q-8 0 -14 -5.5t-6 -13.5v-152q0 -8 6 -14t14 -6t13.5 6t5.5 14v152
q0 8 -5.5 13.5t-13.5 5.5zM371 583q5 -10 17 -10q4 0 9 2q7 4 9 12t-2 15l-76 131q-4 7 -11.5 9t-14.5 -1.5t-9 -11.5t2 -15zM623 575q5 -2 10 -2q11 0 17 10l76 131q4 7 2 15t-9 11.5t-14.5 1.5t-11.5 -9l-77 -131q-4 -7 -2 -15t9 -12zM510 189q-8 0 -14 -5.5t-6 -14.5
v-152q0 -8 6 -13.5t14 -5.5t13.5 5.5t5.5 13.5v152q0 9 -5.5 14.5t-13.5 5.5zM397 196q-7 4 -14.5 2t-11.5 -9l-76 -132q-4 -7 -2 -14.5t9 -11.5q5 -2 10 -2q11 0 17 9l76 132q4 6 1.5 14t-9.5 12zM649 189q-4 7 -11.5 9t-14.5 -2t-9 -11.5t2 -14.5l76 -132q6 -9 17 -9
q5 0 10 2q7 4 9 11.5t-2 14.5z" />
    <glyph glyph-name="guanzhu" unicode="&#xe684;" 
d="M343 719q93 0 156 -59l21 -20l21 20q62 59 151 59q91 0 154 -67.5t63 -159.5q0 -24 -10 -55q-8 -22 -9 -27q-4 -20 7.5 -27.5t26.5 -1t19 19.5q18 54 18 91q0 117 -77 198.5t-192 81.5q-99 0 -175 -61q-77 61 -175 61q-117 0 -199 -82t-82 -197q0 -55 35.5 -120
t83.5 -117.5t113 -108t107.5 -86t82.5 -56.5q8 -6 17 -6h6.5h6.5t5 0.5t6 2t4.5 4t4.5 6.5t4 10q0 8 -1.5 13.5t-5.5 9t-6.5 5.5t-7 4.5t-6.5 2.5q-102 63 -192 141t-147 158t-57 137q0 91 68.5 158.5t160.5 67.5zM839 229v115h-99v-115h-133v-87h133v-115h99v115h133v87
h-133z" />
    <glyph glyph-name="pingshenxiangmu" unicode="&#xe685;" 
d="M962 553l-450 225l-450 -225l450 -225zM512 703l301 -150l-301 -151l-301 151zM872 429l90 -45l-450 -225l-450 225l90 45l360 -180zM872 260l90 -45l-450 -225l-450 225l90 45l360 -180z" />
    <glyph glyph-name="keyi" unicode="&#xe686;" 
d="M347 219q34 -6 68 -6q144 0 247 92q48 44 75 100q28 60 28 124q0 66 -28 124q-27 57 -75 100q-103 92 -247 92t-247 -92q-49 -44 -76 -100q-28 -60 -28 -124q0 -77 38 -144q34 -59 91 -101v-157zM170 419q-29 51 -29 108q0 101 80 172t193.5 71t194 -71t80.5 -171.5
t-80.5 -171.5t-193.5 -71q-31 0 -62 6l-8 2l-86 -50v86l-10 7q-50 32 -79 83zM857 607l-11 -94q53 -67 53 -148q0 -62 -30.5 -116t-86.5 -92l-12 -9v-88l-89 52l-11 -2q-130 -27 -237 42l-98 -16q60 -60 149.5 -86.5t185.5 -9.5l170 -95v173q62 46 98 110.5t36 136.5
q0 67 -32.5 132.5t-84.5 109.5zM405 432q-13 0 -22 -9q-8 -7 -8 -20q0 -12 8.5 -20.5t21.5 -8.5t21 8q10 9 10 21q0 13 -9 20q-9 9 -22 9zM369 614q12 18 41 18q22 0 34 -12q12 -13 12 -34q0 -15 -11 -29l-7 -8q-38 -33 -47 -50q-8 -15 -8 -39v-6h44v6q0 16 7 27q5 11 17 21
q30 26 34 32q16 20 16 49q0 37 -25 58q-24 22 -64 22q-45 0 -72 -26q-26 -26 -26 -70h43q2 28 12 41z" />
    <glyph glyph-name="rukuxiangmu" unicode="&#xe687;" 
d="M753 443v-59h91l-82 -299h-500l-84 299h92v59h-178l119 -419h600l118 419h-176zM576 743h-122v-239h-119l181 -240l177 240h-116zM692 204h-360v-61h360v61z" />
    <glyph glyph-name="qiandinghetongjieduan" unicode="&#xe688;" 
d="M649 -16h-453q-43 0 -73.5 30.5t-30.5 73.5v592q0 43 30.5 73.5t73.5 30.5h453q43 0 73.5 -30.5t30.5 -73.5v-189q0 -15 -10 -25t-24.5 -10t-25 10t-10.5 25v189q0 14 -10 24.5t-25 10.5h-452q-15 0 -25 -10.5t-10 -24.5v-592q0 -15 10 -25t25 -10h452q15 0 25 10t10 25
v67q0 15 10.5 25t25 10t24.5 -10t10 -25v-67q0 -43 -30.5 -73.5t-73.5 -30.5zM859 544l-247 -246l-17 -99l94 29l243 242zM266 175q-5 0 -9 3q-6 3 -8 10t1 13q21 38 39.5 64.5t30 37.5t21.5 18.5t14 6t8 -0.5q19 -3 24 -27q4 -20 5 -50v-5v-5l13 14q16 18 24 25.5t18 12.5
t19 3q16 -3 24 -28q4 -13 2 -28q3 1 9 4q7 3 14 0.5t9.5 -9t0 -13.5t-8.5 -10q-17 -7 -25 -10t-16 -3.5t-14 4.5q-10 9 -6 29q4 16 2 26v0q-8 -6 -26 -27l-14 -15q-22 -25 -40 -18q-8 3 -12.5 11t-5.5 15.5t-2 24.5q-2 32 -3 40q-29 -25 -73 -104q-5 -9 -15 -9zM231 576h383
v-35h-383v35zM231 506h383v-35h-383v35zM231 436h314v-34h-314v34z" />
    <glyph glyph-name="shenqingfangkuanxiangmu" unicode="&#xe689;" 
d="M616 384h52v-52h-52v52zM772 696h-61q-17 46 -57 75t-90 29h-312q-64 0 -110 -46t-46 -110v-520q0 -65 46 -110.5t110 -45.5h521q64 0 110 45.5t46 110.5v416q-1 65 -46.5 110.5t-110.5 45.5zM252 748h312q28 0 52 -14t37 -38h-401q-58 0 -103 -40q5 39 34 65.5t69 26.5z
M856 124q0 -71 -84 -84h-520q-24 0 -43 17t-41 67v416q0 31 27.5 55.5t56.5 28.5h520q44 0 69 -21t25 -63v-16h-302q-21 0 -41.5 -20.5t-20.5 -41.5v-208q0 -22 20.5 -42.5t41.5 -20.5h292v-67zM876 280q0 -11 -7.5 -18.5t-18.5 -7.5h-260q-11 0 -18.5 7.5t-7.5 18.5v156
q0 11 7.5 18.5t18.5 7.5h260q11 0 18.5 -7.5t7.5 -18.5v-156z" />
    <glyph glyph-name="shenpixiangmu" unicode="&#xe68a;" 
d="M515.5 749q54.5 0 93 -38.5t38.5 -91.5q0 -34 -17.5 -64t-46.5 -48q-33 -19 -28 -56l18 -148q3 -21 19.5 -36t38.5 -15h146h1v-121h-1h-529h-1v121h1h153q22 0 38.5 14.5t19.5 36.5l18 148q2 16 -5.5 32t-21.5 24q-30 18 -47 48t-17 64q-1 54 37 92t92.5 38zM516 806
q-78 0 -133.5 -54.5t-55.5 -132.5q0 -50 25 -93t67 -68l-18 -147h-154q-24 0 -41 -17t-17 -41v-121q0 -24 17 -41t41 -17h530q24 0 41 17t17 41v121q0 24 -17 41t-41 17h-147l-18 147q43 25 68 68t25 93q0 78 -55.5 132.5t-133.5 54.5zM812 26h-600q-13 0 -22.5 -9.5
t-9.5 -23t9.5 -22.5t22.5 -9h600q13 0 22.5 9t9.5 22.5t-9.5 23t-22.5 9.5z" />
    <glyph glyph-name="sunshi1" unicode="&#xe68b;" 
d="M488 -33l-248 244h-96l344 -339l345 339h-96zM880 807q-93 0 -170.5 -14.5t-132 -39.5t-97 -60.5t-69 -74t-43 -84t-23 -87.5t-6.5 -87h-195l344 -340l346 340h-197l-0.5 16t-0.5 32.5t2.5 43.5t6.5 52.5t12.5 57.5t20.5 60t30.5 57.5t42.5 52.5t57 43t72 32zM563 315
q18 0 30 3v-33q-17 2 -30 2h-35l-9 -15v-9h43q18 0 31 3v-34q-17 3 -31 3h-43v-20q0 -23 2 -38h-43q2 19 2 38v20h-44q-18 0 -30 -3v34q17 -3 30 -3h44v9l-9 15h-34q-18 0 -31 -3v33q16 -2 31 -2h16l-41 64q-17 26 -20 31h50q3 -12 14 -29l43 -74l44 74q11 19 14 29h50
q-19 -27 -21 -30l-40 -65h17z" />
    <glyph glyph-name="zaibaoyuetongji" unicode="&#xe68c;" 
d="M189 312q-12 0 -20.5 9t-8.5 21v146q0 13 8.5 21.5t20.5 8.5t20.5 -9t8.5 -21v-146q0 -12 -8.5 -21t-20.5 -9zM835 18h-588q-36 0 -62 26t-26 62v59q0 13 8.5 21.5t20.5 8.5q13 0 21.5 -9t8.5 -21v-59q0 -12 8.5 -20.5t20.5 -8.5h588q12 0 20.5 9t8.5 20v588
q0 12 -8.5 20.5t-20.5 8.5h-588q-12 0 -20.5 -5t-8.5 -10v-43q0 -13 -9 -21.5t-21 -8.5t-20.5 9t-8.5 21v43q0 30 26 52t62 22h588q37 0 62.5 -26t25.5 -62v-588q1 -36 -25 -62t-63 -26zM218 547h-88q-12 0 -20.5 9t-8.5 21t8.5 20.5t20.5 8.5h88q12 0 20.5 -8.5t8.5 -20.5
t-8.5 -21t-20.5 -9zM218 224h-88q-12 0 -20.5 8.5t-8.5 20.5t8.5 21t20.5 9h88q12 0 20.5 -9t8.5 -21t-8.5 -20.5t-20.5 -8.5zM663 397q17 0 28.5 11.5t11.5 28t-11.5 28.5t-28.5 12h-65l95 91q12 12 12.5 28.5t-11 28.5t-28 12t-29.5 -11l-95 -92l-91 91q-12 12 -28.5 12
t-28.5 -12t-12 -28.5t12 -27.5l92 -92h-64q-16 0 -28 -12t-12 -28.5t12 -28t28 -11.5h81v-40h-81q-16 0 -28 -12t-12 -28.5t12 -28t28 -11.5h81v-80q0 -17 11.5 -28.5t28 -11.5t28.5 11.5t12 28.5v80h80q16 0 27.5 11.5t11.5 28t-11.5 28.5t-27.5 12h-80v40h80z" />
    <glyph glyph-name="mbtn49" unicode="&#xe68d;" 
d="M257 384q0 -117 75.5 -194.5t191.5 -77.5q66 0 114 24t88 74l-445 263q-9 -22 -13 -31.5t-7.5 -26t-3.5 -31.5zM524 651q-68 0 -113 -19.5t-83 -68.5l445 -262q19 43 19 83q0 117 -75.5 192t-192.5 75zM879 896h-734q-59 0 -101.5 -42.5t-42.5 -102.5v-734
q0 -59 42.5 -101.5t101.5 -42.5h734q60 0 102.5 42.5t42.5 101.5v734q0 60 -42.5 102.5t-102.5 42.5zM524 7q-102 0 -188.5 50.5t-137.5 137.5t-51 189t51 189t137.5 137.5t188.5 50.5t189 -50.5t137.5 -137.5t50.5 -189t-50.5 -189t-137.5 -137.5t-189 -50.5z" />
    <glyph glyph-name="mbtn51" unicode="&#xe68f;" 
d="M879 896h-734q-59 0 -101.5 -42.5t-42.5 -102.5v-734q0 -59 42.5 -101.5t101.5 -42.5h734q60 0 102.5 42.5t42.5 101.5v734q0 60 -42.5 102.5t-102.5 42.5zM511 710l277 -236h-552zM630 473v-237h-237v237h237zM828 78h-632v79h632v-79z" />
    </font>
</defs>
</svg>
